<?xml version="1.0" encoding="utf-8" ?>
<svg baseProfile="tiny" height="300px" version="1.2" width="300px" xmlns="http://www.w3.org/2000/svg" xmlns:ev="http://www.w3.org/2001/xml-events" xmlns:xlink="http://www.w3.org/1999/xlink"><defs /><circle cx="150" cy="150" fill="darkgreen" opacity="0.7" r="192" /><circle cx="150" cy="150" fill="darkblue" opacity="0.7" r="144.0" /><circle cx="150" cy="150" fill="darkred" opacity="0.7" r="96" /><text fill="darkgreen" font-family="Arial" font-size="20px" text-anchor="middle" transform="rotate(180.0 -22.0 150.00000000000003)" x="-22.0" y="150.00000000000003">H</text><text fill="darkgreen" font-family="Arial" font-size="20px" text-anchor="middle" transform="rotate(225.0 28.377633635913796 28.37763363591384)" x="28.377633635913796" y="28.37763363591384">a</text><text fill="darkgreen" font-family="Arial" font-size="20px" text-anchor="middle" transform="rotate(270.0 149.99999999999997 -22.0)" x="149.99999999999997" y="-22.0">p</text><text fill="darkgreen" font-family="Arial" font-size="20px" text-anchor="middle" transform="rotate(315.0 271.62236636408613 28.377633635913796)" x="271.62236636408613" y="28.377633635913796">p</text><text fill="darkgreen" font-family="Arial" font-size="20px" text-anchor="middle" transform="rotate(360.0 322.0 149.99999999999997)" x="322.0" y="149.99999999999997">y</text><text fill="darkred" font-family="Arial" font-size="20px" text-anchor="middle" transform="rotate(90.0 150.0 274.0)" x="150.0" y="274.0">M</text><text fill="darkred" font-family="Arial" font-size="20px" text-anchor="middle" transform="rotate(115.71428571428571 96.1984163494228 261.72013961989995)" x="96.1984163494228" y="261.72013961989995">o</text><text fill="darkred" font-family="Arial" font-size="20px" text-anchor="middle" transform="rotate(141.42857142857142 53.052896173964314 227.31273543048297)" x="53.052896173964314" y="227.31273543048297">t</text><text fill="darkred" font-family="Arial" font-size="20px" text-anchor="middle" transform="rotate(167.14285714285714 29.108938889453867 177.592595810583)" x="29.108938889453867" y="177.592595810583">h</text><text fill="darkred" font-family="Arial" font-size="20px" text-anchor="middle" transform="rotate(192.85714285714286 29.108938889453867 122.40740418941704)" x="29.108938889453867" y="122.40740418941704">e</text><text fill="darkred" font-family="Arial" font-size="20px" text-anchor="middle" transform="rotate(218.57142857142856 53.052896173964285 72.68726456951705)" x="53.052896173964285" y="72.68726456951705">r</text><text fill="darkred" font-family="Arial" font-size="20px" text-anchor="middle" transform="rotate(244.28571428571428 96.19841634942277 38.27986038010005)" x="96.19841634942277" y="38.27986038010005">'</text><text fill="darkred" font-family="Arial" font-size="20px" text-anchor="middle" transform="rotate(270.0 149.99999999999997 26.0)" x="149.99999999999997" y="26.0">s</text><text fill="darkblue" font-family="Arial" font-size="24px" text-anchor="middle" x="150" y="150">Day</text></svg>