<?xml version="1.0" encoding="utf-8" ?>
<svg baseProfile="full" height="400" version="1.1" width="600" xmlns="http://www.w3.org/2000/svg" xmlns:ev="http://www.w3.org/2001/xml-events" xmlns:xlink="http://www.w3.org/1999/xlink"><defs><linearGradient id="bg-gradient" x1="0" x2="1" y1="0" y2="1"><stop offset="0.00" stop-color="#e53935" stop-opacity="0.15" /><stop offset="0.50" stop-color="#1e88e5" stop-opacity="0.15" /><stop offset="1.00" stop-color="#43a047" stop-opacity="0.15" /></linearGradient><filter id="blur"><feGaussianBlur in="SourceGraphic" stdDeviation="2" /></filter></defs><rect fill="url(#bg-gradient)" height="400" width="600" x="0" y="0" /><circle cx="246" cy="203" fill="#e53935" opacity="0.25" r="25" /><rect fill="#43a047" height="12" opacity="0.25" width="64" x="176" y="334" /><rect fill="#43a047" height="30" opacity="0.25" width="80" x="391" y="140" /><rect fill="#1e88e5" height="12" opacity="0.25" width="47" x="11" y="61" /><circle cx="521" cy="115" fill="#1e88e5" opacity="0.25" r="10" /><rect fill="#43a047" height="28" opacity="0.25" width="28" x="586" y="245" /><rect fill="#43a047" height="25" opacity="0.25" width="25" x="96" y="303" /><rect fill="#1e88e5" height="14" opacity="0.25" width="76" x="444" y="152" /><circle cx="65" cy="365" fill="#1e88e5" opacity="0.25" r="27" /><circle cx="20" cy="201" fill="#1e88e5" opacity="0.25" r="27" /><rect fill="#43a047" height="36" opacity="0.25" width="36" x="500" y="32" /><rect fill="#43a047" height="26" opacity="0.25" width="26" x="127" y="385" /><rect fill="#e53935" height="25" opacity="0.25" width="25" x="185" y="306" /><circle cx="457" cy="160" fill="#43a047" opacity="0.25" r="13" /><circle cx="588" cy="105" fill="#e53935" opacity="0.25" r="30" /><circle cx="575" cy="131" fill="#e53935" opacity="0.25" r="11" /><circle cx="518" cy="152" fill="#e53935" opacity="0.25" r="21" /><rect fill="#e53935" height="20" opacity="0.25" width="20" x="433" y="336" /><circle cx="47" cy="265" fill="#1e88e5" opacity="0.25" r="19" /><rect fill="#43a047" height="38" opacity="0.25" width="38" x="455" y="71" /><rect fill="#43a047" height="29" opacity="0.25" width="62" x="320" y="267" /><rect fill="#43a047" height="23" opacity="0.25" width="23" x="214" y="352" /><rect fill="#e53935" height="26" opacity="0.25" width="26" x="242" y="18" /><circle cx="220" cy="68" fill="#1e88e5" opacity="0.25" r="29" /><rect fill="#e53935" height="24" opacity="0.25" width="24" x="367" y="142" /><rect fill="#43a047" height="37" opacity="0.25" width="37" x="432" y="38" /><rect fill="#1e88e5" height="22" opacity="0.25" width="50" x="390" y="332" /><rect fill="#e53935" height="14" opacity="0.25" width="67" x="260" y="346" /><rect fill="#e53935" height="28" opacity="0.25" width="28" x="72" y="322" /><rect fill="#43a047" height="31" opacity="0.25" width="31" x="197" y="365" /><rect fill="#43a047" height="25" opacity="0.25" width="25" x="523" y="309" /><rect fill="#e53935" height="10" opacity="0.25" width="64" x="323" y="222" /><rect fill="#e53935" height="23" opacity="0.25" width="23" x="79" y="138" /><rect fill="#e53935" height="22" opacity="0.25" width="22" x="561" y="208" /><rect fill="#43a047" height="18" opacity="0.25" width="61" x="91" y="185" /><circle cx="280" cy="5" fill="#e53935" opacity="0.25" r="13" /><rect fill="#e53935" height="15" opacity="0.25" width="47" x="387" y="53" /><rect fill="#43a047" height="35" opacity="0.25" width="35" x="313" y="301" /><circle cx="357" cy="358" fill="#43a047" opacity="0.25" r="28" /><rect fill="#43a047" height="11" opacity="0.25" width="46" x="277" y="311" /><circle cx="398" cy="92" fill="#1e88e5" opacity="0.25" r="21" /><rect fill="#43a047" height="39" opacity="0.25" width="39" x="544" y="282" /><rect fill="#1e88e5" height="26" opacity="0.25" width="40" x="130" y="132" /><rect fill="#e53935" height="32" opacity="0.25" width="32" x="129" y="73" /><rect fill="#43a047" height="40" opacity="0.25" width="40" x="273" y="27" /><rect fill="#43a047" height="23" opacity="0.25" width="78" x="255" y="347" /><rect fill="#1e88e5" height="31" opacity="0.25" width="31" x="187" y="224" /><rect fill="#43a047" height="26" opacity="0.25" width="67" x="293" y="141" /><rect fill="#e53935" height="22" opacity="0.25" width="22" x="312" y="325" /><rect fill="#1e88e5" height="12" opacity="0.25" width="80" x="320" y="46" /><circle cx="245" cy="47" fill="#43a047" opacity="0.25" r="15" /><rect fill="#e53935" height="29" opacity="0.25" width="29" x="86" y="380" /><rect fill="#1e88e5" height="36" opacity="0.25" width="36" x="10" y="217" /><rect fill="#e53935" height="36" opacity="0.25" width="36" x="491" y="254" /><rect fill="#43a047" height="23" opacity="0.25" width="23" x="545" y="357" /><rect fill="#e53935" height="23" opacity="0.25" width="40" x="194" y="381" /><rect fill="#43a047" height="36" opacity="0.25" width="36" x="353" y="125" /><rect fill="#43a047" height="34" opacity="0.25" width="34" x="43" y="310" /><circle cx="536" cy="115" fill="#43a047" opacity="0.25" r="15" /><circle cx="136" cy="263" fill="#1e88e5" opacity="0.25" r="21" /><circle cx="507" cy="194" fill="#1e88e5" opacity="0.25" r="15" /><rect fill="#e53935" height="27" opacity="0.25" width="55" x="346" y="347" /><circle cx="306" cy="247" fill="#1e88e5" opacity="0.25" r="19" /><rect fill="#e53935" height="28" opacity="0.25" width="80" x="2" y="377" /><rect fill="#e53935" height="11" opacity="0.25" width="72" x="312" y="329" /><rect fill="#43a047" height="10" opacity="0.25" width="62" x="499" y="29" /><rect fill="#1e88e5" height="31" opacity="0.25" width="31" x="336" y="152" /><circle cx="358" cy="369" fill="#e53935" opacity="0.25" r="15" /><rect fill="#1e88e5" height="25" opacity="0.25" width="67" x="9" y="51" /><circle cx="541" cy="263" fill="#e53935" opacity="0.25" r="14" /><rect fill="#e53935" height="18" opacity="0.25" width="49" x="499" y="3" /><circle cx="404" cy="191" fill="#1e88e5" opacity="0.25" r="19" /><rect fill="#1e88e5" height="13" opacity="0.25" width="57" x="186" y="274" /><rect fill="#43a047" height="21" opacity="0.25" width="48" x="449" y="82" /><rect fill="#1e88e5" height="26" opacity="0.25" width="26" x="5" y="183" /><circle cx="291" cy="20" fill="#e53935" opacity="0.25" r="14" /><rect fill="#1e88e5" height="16" opacity="0.25" width="50" x="339" y="16" /><rect fill="#43a047" height="25" opacity="0.25" width="66" x="272" y="60" /><rect fill="#1e88e5" height="32" opacity="0.25" width="32" x="130" y="166" /><rect fill="#43a047" height="23" opacity="0.25" width="23" x="398" y="67" /><circle cx="129" cy="79" fill="#e53935" opacity="0.25" r="21" /><rect fill="#e53935" height="30" opacity="0.25" width="30" x="242" y="26" /><rect fill="#43a047" height="19" opacity="0.25" width="70" x="8" y="222" /><rect fill="#1e88e5" height="17" opacity="0.25" width="67" x="84" y="389" /><rect fill="#e53935" height="27" opacity="0.25" width="27" x="523" y="95" /><rect fill="#e53935" height="23" opacity="0.25" width="55" x="269" y="358" /><circle cx="105" cy="358" fill="#1e88e5" opacity="0.25" r="26" /><rect fill="#e53935" height="40" opacity="0.25" width="40" x="193" y="302" /><rect fill="#e53935" height="24" opacity="0.25" width="24" x="234" y="61" /><rect fill="#e53935" height="23" opacity="0.25" width="49" x="280" y="98" /><circle cx="204" cy="46" fill="#43a047" opacity="0.25" r="11" /><rect fill="#1e88e5" height="17" opacity="0.25" width="80" x="537" y="156" /><circle cx="436" cy="245" fill="#1e88e5" opacity="0.25" r="11" /><rect fill="#1e88e5" height="23" opacity="0.25" width="23" x="52" y="155" /><rect fill="#1e88e5" height="17" opacity="0.25" width="66" x="287" y="179" /><rect fill="#e53935" height="11" opacity="0.25" width="40" x="186" y="20" /><rect fill="#43a047" height="29" opacity="0.25" width="29" x="329" y="108" /><rect fill="#1e88e5" height="18" opacity="0.25" width="51" x="103" y="220" /><rect fill="#1e88e5" height="13" opacity="0.25" width="47" x="342" y="155" /><rect fill="#e53935" height="24" opacity="0.25" width="24" x="565" y="394" /><rect fill="#e53935" filter="url(#blur)" height="40" width="40" x="175" y="125" /><text fill="white" font-size="28px" font-weight="bold" text-anchor="middle" x="195.0" y="151.66666666666666">H</text><rect fill="#e53935" filter="url(#blur)" height="40" width="40" x="225" y="125" /><text fill="white" font-size="28px" font-weight="bold" text-anchor="middle" x="245.0" y="151.66666666666666">A</text><rect fill="#e53935" filter="url(#blur)" height="40" width="40" x="275" y="125" /><text fill="white" font-size="28px" font-weight="bold" text-anchor="middle" x="295.0" y="151.66666666666666">P</text><rect fill="#e53935" filter="url(#blur)" height="40" width="40" x="325" y="125" /><text fill="white" font-size="28px" font-weight="bold" text-anchor="middle" x="345.0" y="151.66666666666666">P</text><rect fill="#e53935" filter="url(#blur)" height="40" width="40" x="375" y="125" /><text fill="white" font-size="28px" font-weight="bold" text-anchor="middle" x="395.0" y="151.66666666666666">Y</text><rect fill="#1e88e5" filter="url(#blur)" height="40" width="40" x="100" y="175" /><text fill="white" font-size="28px" font-weight="bold" text-anchor="middle" x="120.0" y="201.66666666666666">F</text><rect fill="#1e88e5" filter="url(#blur)" height="40" width="40" x="150" y="175" /><text fill="white" font-size="28px" font-weight="bold" text-anchor="middle" x="170.0" y="201.66666666666666">A</text><rect fill="#1e88e5" filter="url(#blur)" height="40" width="40" x="200" y="175" /><text fill="white" font-size="28px" font-weight="bold" text-anchor="middle" x="220.0" y="201.66666666666666">T</text><rect fill="#1e88e5" filter="url(#blur)" height="40" width="40" x="250" y="175" /><text fill="white" font-size="28px" font-weight="bold" text-anchor="middle" x="270.0" y="201.66666666666666">H</text><rect fill="#1e88e5" filter="url(#blur)" height="40" width="40" x="300" y="175" /><text fill="white" font-size="28px" font-weight="bold" text-anchor="middle" x="320.0" y="201.66666666666666">E</text><rect fill="#1e88e5" filter="url(#blur)" height="40" width="40" x="350" y="175" /><text fill="white" font-size="28px" font-weight="bold" text-anchor="middle" x="370.0" y="201.66666666666666">R</text><rect fill="#1e88e5" filter="url(#blur)" height="40" width="40" x="400" y="175" /><text fill="white" font-size="28px" font-weight="bold" text-anchor="middle" x="420.0" y="201.66666666666666">'</text><rect fill="#1e88e5" filter="url(#blur)" height="40" width="40" x="450" y="175" /><text fill="white" font-size="28px" font-weight="bold" text-anchor="middle" x="470.0" y="201.66666666666666">S</text><rect fill="#43a047" filter="url(#blur)" height="40" width="40" x="225" y="225" /><text fill="white" font-size="28px" font-weight="bold" text-anchor="middle" x="245.0" y="251.66666666666666">D</text><rect fill="#43a047" filter="url(#blur)" height="40" width="40" x="275" y="225" /><text fill="white" font-size="28px" font-weight="bold" text-anchor="middle" x="295.0" y="251.66666666666666">A</text><rect fill="#43a047" filter="url(#blur)" height="40" width="40" x="325" y="225" /><text fill="white" font-size="28px" font-weight="bold" text-anchor="middle" x="345.0" y="251.66666666666666">Y</text></svg>