<?xml version="1.0" encoding="utf-8" ?>
<svg baseProfile="full" height="400" version="1.1" width="600" xmlns="http://www.w3.org/2000/svg" xmlns:ev="http://www.w3.org/2001/xml-events" xmlns:xlink="http://www.w3.org/1999/xlink"><defs><linearGradient id="bg-gradient" x1="0" x2="1" y1="0" y2="1"><stop offset="0.00" stop-color="#e53935" stop-opacity="0.2" /><stop offset="0.50" stop-color="#1e88e5" stop-opacity="0.2" /><stop offset="1.00" stop-color="#43a047" stop-opacity="0.2" /></linearGradient><filter id="blur"><feGaussianBlur in="SourceGraphic" stdDeviation="2" /></filter></defs><rect fill="url(#bg-gradient)" height="400" width="600" x="0" y="0" /><rect fill="#e53935" height="11" opacity="0.25" width="58" x="556" y="289" /><rect fill="#e53935" height="24" opacity="0.25" width="40" x="412" y="343" /><rect fill="#1e88e5" height="21" opacity="0.25" width="21" x="55" y="43" /><rect fill="#43a047" height="13" opacity="0.25" width="78" x="109" y="170" /><rect fill="#43a047" height="11" opacity="0.25" width="61" x="493" y="353" /><circle cx="598" cy="345" fill="#43a047" opacity="0.25" r="26" /><rect fill="#43a047" height="26" opacity="0.25" width="26" x="54" y="359" /><rect fill="#e53935" height="35" opacity="0.25" width="35" x="575" y="379" /><circle cx="158" cy="154" fill="#e53935" opacity="0.25" r="30" /><rect fill="#43a047" height="16" opacity="0.25" width="79" x="6" y="248" /><circle cx="0" cy="78" fill="#e53935" opacity="0.25" r="29" /><circle cx="99" cy="126" fill="#43a047" opacity="0.25" r="16" /><circle cx="25" cy="258" fill="#1e88e5" opacity="0.25" r="24" /><rect fill="#e53935" height="25" opacity="0.25" width="65" x="124" y="153" /><circle cx="559" cy="133" fill="#e53935" opacity="0.25" r="29" /><rect fill="#1e88e5" height="24" opacity="0.25" width="24" x="126" y="221" /><rect fill="#e53935" height="27" opacity="0.25" width="27" x="189" y="72" /><circle cx="559" cy="102" fill="#43a047" opacity="0.25" r="25" /><rect fill="#1e88e5" height="28" opacity="0.25" width="46" x="296" y="341" /><rect fill="#1e88e5" height="13" opacity="0.25" width="64" x="281" y="200" /><rect fill="#1e88e5" height="19" opacity="0.25" width="41" x="435" y="75" /><rect fill="#e53935" height="28" opacity="0.25" width="40" x="577" y="199" /><rect fill="#e53935" height="14" opacity="0.25" width="62" x="455" y="21" /><rect fill="#43a047" height="15" opacity="0.25" width="40" x="469" y="141" /><rect fill="#43a047" height="26" opacity="0.25" width="62" x="515" y="107" /><rect fill="#43a047" height="21" opacity="0.25" width="49" x="64" y="89" /><rect fill="#43a047" height="34" opacity="0.25" width="34" x="576" y="173" /><rect fill="#e53935" height="29" opacity="0.25" width="29" x="285" y="390" /><rect fill="#e53935" height="29" opacity="0.25" width="70" x="495" y="192" /><rect fill="#e53935" height="36" opacity="0.25" width="36" x="589" y="362" /><rect fill="#43a047" height="30" opacity="0.25" width="30" x="265" y="66" /><rect fill="#43a047" height="39" opacity="0.25" width="39" x="356" y="299" /><rect fill="#e53935" height="17" opacity="0.25" width="50" x="46" y="15" /><circle cx="108" cy="255" fill="#43a047" opacity="0.25" r="25" /><rect fill="#e53935" height="22" opacity="0.25" width="51" x="242" y="53" /><rect fill="#e53935" height="13" opacity="0.25" width="56" x="63" y="313" /><circle cx="74" cy="226" fill="#43a047" opacity="0.25" r="21" /><rect fill="#43a047" height="30" opacity="0.25" width="30" x="30" y="89" /><circle cx="460" cy="193" fill="#43a047" opacity="0.25" r="14" /><rect fill="#43a047" height="26" opacity="0.25" width="26" x="569" y="102" /><rect fill="#1e88e5" height="17" opacity="0.25" width="58" x="448" y="347" /><circle cx="165" cy="222" fill="#43a047" opacity="0.25" r="26" /><circle cx="596" cy="12" fill="#e53935" opacity="0.25" r="30" /><rect fill="#e53935" height="24" opacity="0.25" width="24" x="208" y="17" /><circle cx="417" cy="290" fill="#1e88e5" opacity="0.25" r="27" /><circle cx="189" cy="349" fill="#1e88e5" opacity="0.25" r="30" /><rect fill="#1e88e5" height="38" opacity="0.25" width="38" x="194" y="106" /><rect fill="#43a047" height="27" opacity="0.25" width="79" x="360" y="182" /><circle cx="449" cy="218" fill="#e53935" opacity="0.25" r="30" /><rect fill="#e53935" height="26" opacity="0.25" width="48" x="582" y="40" /><rect fill="#e53935" height="11" opacity="0.25" width="54" x="120" y="255" /><rect fill="#43a047" height="27" opacity="0.25" width="27" x="338" y="11" /><rect fill="#1e88e5" height="12" opacity="0.25" width="62" x="399" y="360" /><circle cx="76" cy="273" fill="#1e88e5" opacity="0.25" r="28" /><circle cx="512" cy="159" fill="#43a047" opacity="0.25" r="22" /><rect fill="#e53935" height="23" opacity="0.25" width="23" x="559" y="357" /><rect fill="#1e88e5" height="20" opacity="0.25" width="20" x="269" y="334" /><circle cx="431" cy="133" fill="#1e88e5" opacity="0.25" r="16" /><rect fill="#e53935" height="20" opacity="0.25" width="75" x="142" y="104" /><rect fill="#e53935" height="22" opacity="0.25" width="22" x="241" y="252" /><rect fill="#43a047" height="22" opacity="0.25" width="22" x="36" y="177" /><rect fill="#43a047" height="14" opacity="0.25" width="70" x="82" y="282" /><rect fill="#43a047" height="25" opacity="0.25" width="42" x="42" y="53" /><rect fill="#e53935" height="35" opacity="0.25" width="35" x="358" y="220" /><rect fill="#e53935" height="16" opacity="0.25" width="41" x="21" y="28" /><rect fill="#43a047" height="20" opacity="0.25" width="20" x="388" y="349" /><rect fill="#1e88e5" height="32" opacity="0.25" width="32" x="53" y="198" /><rect fill="#e53935" height="33" opacity="0.25" width="33" x="440" y="359" /><rect fill="#e53935" height="23" opacity="0.25" width="23" x="118" y="224" /><rect fill="#1e88e5" height="30" opacity="0.25" width="30" x="360" y="99" /><rect fill="#e53935" height="28" opacity="0.25" width="45" x="243" y="118" /><circle cx="422" cy="382" fill="#e53935" opacity="0.25" r="27" /><rect fill="#e53935" height="27" opacity="0.25" width="27" x="15" y="368" /><circle cx="58" cy="64" fill="#e53935" opacity="0.25" r="24" /><circle cx="44" cy="160" fill="#1e88e5" opacity="0.25" r="21" /><rect fill="#43a047" height="24" opacity="0.25" width="24" x="250" y="149" /><rect fill="#1e88e5" height="23" opacity="0.25" width="23" x="490" y="336" /><rect fill="#e53935" height="37" opacity="0.25" width="37" x="78" y="128" /><circle cx="365" cy="112" fill="#1e88e5" opacity="0.25" r="24" /><rect fill="#1e88e5" height="37" opacity="0.25" width="37" x="375" y="399" /><rect fill="#43a047" height="20" opacity="0.25" width="57" x="250" y="269" /><rect fill="#43a047" height="21" opacity="0.25" width="21" x="515" y="53" /><rect fill="#1e88e5" height="16" opacity="0.25" width="45" x="497" y="143" /><circle cx="236" cy="156" fill="#43a047" opacity="0.25" r="27" /><circle cx="381" cy="371" fill="#e53935" opacity="0.25" r="14" /><circle cx="450" cy="332" fill="#e53935" opacity="0.25" r="24" /><circle cx="510" cy="17" fill="#e53935" opacity="0.25" r="18" /><rect fill="#43a047" height="11" opacity="0.25" width="45" x="393" y="153" /><rect fill="#43a047" height="22" opacity="0.25" width="41" x="393" y="253" /><rect fill="#1e88e5" height="22" opacity="0.25" width="53" x="45" y="114" /><circle cx="441" cy="272" fill="#43a047" opacity="0.25" r="11" /><rect fill="#1e88e5" height="31" opacity="0.25" width="31" x="32" y="277" /><circle cx="344" cy="134" fill="#43a047" opacity="0.25" r="28" /><circle cx="349" cy="371" fill="#e53935" opacity="0.25" r="29" /><rect fill="#1e88e5" height="22" opacity="0.25" width="75" x="58" y="55" /><rect fill="#43a047" height="34" opacity="0.25" width="34" x="294" y="273" /><rect fill="#43a047" height="18" opacity="0.25" width="73" x="581" y="393" /><circle cx="478" cy="381" fill="#1e88e5" opacity="0.25" r="17" /><circle cx="287" cy="349" fill="#e53935" opacity="0.25" r="18" /><circle cx="555" cy="151" fill="#e53935" opacity="0.25" r="20" /><rect fill="#e53935" filter="url(#blur)" height="40" width="40" x="175" y="125" /><text fill="white" font-size="28px" font-weight="bold" text-anchor="middle" x="195.0" y="151.66666666666666">H</text><rect fill="#e53935" filter="url(#blur)" height="40" width="40" x="225" y="125" /><text fill="white" font-size="28px" font-weight="bold" text-anchor="middle" x="245.0" y="151.66666666666666">A</text><rect fill="#e53935" filter="url(#blur)" height="40" width="40" x="275" y="125" /><text fill="white" font-size="28px" font-weight="bold" text-anchor="middle" x="295.0" y="151.66666666666666">P</text><rect fill="#e53935" filter="url(#blur)" height="40" width="40" x="325" y="125" /><text fill="white" font-size="28px" font-weight="bold" text-anchor="middle" x="345.0" y="151.66666666666666">P</text><rect fill="#e53935" filter="url(#blur)" height="40" width="40" x="375" y="125" /><text fill="white" font-size="28px" font-weight="bold" text-anchor="middle" x="395.0" y="151.66666666666666">Y</text><rect fill="#1e88e5" filter="url(#blur)" height="40" width="40" x="25" y="175" /><text fill="white" font-size="28px" font-weight="bold" text-anchor="middle" x="45.0" y="201.66666666666666">V</text><rect fill="#1e88e5" filter="url(#blur)" height="40" width="40" x="75" y="175" /><text fill="white" font-size="28px" font-weight="bold" text-anchor="middle" x="95.0" y="201.66666666666666">A</text><rect fill="#1e88e5" filter="url(#blur)" height="40" width="40" x="125" y="175" /><text fill="white" font-size="28px" font-weight="bold" text-anchor="middle" x="145.0" y="201.66666666666666">L</text><rect fill="#1e88e5" filter="url(#blur)" height="40" width="40" x="175" y="175" /><text fill="white" font-size="28px" font-weight="bold" text-anchor="middle" x="195.0" y="201.66666666666666">E</text><rect fill="#1e88e5" filter="url(#blur)" height="40" width="40" x="225" y="175" /><text fill="white" font-size="28px" font-weight="bold" text-anchor="middle" x="245.0" y="201.66666666666666">N</text><rect fill="#1e88e5" filter="url(#blur)" height="40" width="40" x="275" y="175" /><text fill="white" font-size="28px" font-weight="bold" text-anchor="middle" x="295.0" y="201.66666666666666">T</text><rect fill="#1e88e5" filter="url(#blur)" height="40" width="40" x="325" y="175" /><text fill="white" font-size="28px" font-weight="bold" text-anchor="middle" x="345.0" y="201.66666666666666">I</text><rect fill="#1e88e5" filter="url(#blur)" height="40" width="40" x="375" y="175" /><text fill="white" font-size="28px" font-weight="bold" text-anchor="middle" x="395.0" y="201.66666666666666">N</text><rect fill="#1e88e5" filter="url(#blur)" height="40" width="40" x="425" y="175" /><text fill="white" font-size="28px" font-weight="bold" text-anchor="middle" x="445.0" y="201.66666666666666">E</text><rect fill="#1e88e5" filter="url(#blur)" height="40" width="40" x="475" y="175" /><text fill="white" font-size="28px" font-weight="bold" text-anchor="middle" x="495.0" y="201.66666666666666">'</text><rect fill="#1e88e5" filter="url(#blur)" height="40" width="40" x="525" y="175" /><text fill="white" font-size="28px" font-weight="bold" text-anchor="middle" x="545.0" y="201.66666666666666">S</text><rect fill="#43a047" filter="url(#blur)" height="40" width="40" x="225" y="225" /><text fill="white" font-size="28px" font-weight="bold" text-anchor="middle" x="245.0" y="251.66666666666666">D</text><rect fill="#43a047" filter="url(#blur)" height="40" width="40" x="275" y="225" /><text fill="white" font-size="28px" font-weight="bold" text-anchor="middle" x="295.0" y="251.66666666666666">A</text><rect fill="#43a047" filter="url(#blur)" height="40" width="40" x="325" y="225" /><text fill="white" font-size="28px" font-weight="bold" text-anchor="middle" x="345.0" y="251.66666666666666">Y</text></svg>