<?xml version="1.0" encoding="utf-8" ?>
<svg baseProfile="full" height="400" version="1.1" width="600" xmlns="http://www.w3.org/2000/svg" xmlns:ev="http://www.w3.org/2001/xml-events" xmlns:xlink="http://www.w3.org/1999/xlink"><defs><linearGradient id="bg-gradient" x1="0" x2="1" y1="0" y2="1"><stop offset="0.00" stop-color="#e53935" stop-opacity="0.2" /><stop offset="0.50" stop-color="#1e88e5" stop-opacity="0.2" /><stop offset="1.00" stop-color="#43a047" stop-opacity="0.2" /></linearGradient><filter id="blur"><feGaussianBlur in="SourceGraphic" stdDeviation="2" /></filter></defs><rect fill="url(#bg-gradient)" height="400" width="600" x="0" y="0" /><circle cx="165" cy="77" fill="#1e88e5" opacity="0.25" r="24" /><circle cx="95" cy="367" fill="#43a047" opacity="0.25" r="17" /><circle cx="144" cy="393" fill="#43a047" opacity="0.25" r="15" /><rect fill="#43a047" height="30" opacity="0.25" width="30" x="535" y="393" /><rect fill="#e53935" height="29" opacity="0.25" width="63" x="347" y="148" /><rect fill="#e53935" height="29" opacity="0.25" width="53" x="396" y="122" /><rect fill="#e53935" height="40" opacity="0.25" width="40" x="156" y="290" /><rect fill="#e53935" height="27" opacity="0.25" width="59" x="15" y="73" /><circle cx="96" cy="232" fill="#1e88e5" opacity="0.25" r="20" /><circle cx="165" cy="34" fill="#1e88e5" opacity="0.25" r="18" /><rect fill="#1e88e5" height="22" opacity="0.25" width="22" x="361" y="45" /><circle cx="471" cy="132" fill="#43a047" opacity="0.25" r="25" /><rect fill="#1e88e5" height="25" opacity="0.25" width="76" x="143" y="63" /><circle cx="293" cy="205" fill="#1e88e5" opacity="0.25" r="23" /><rect fill="#43a047" height="31" opacity="0.25" width="31" x="132" y="225" /><rect fill="#43a047" height="22" opacity="0.25" width="22" x="321" y="191" /><rect fill="#1e88e5" height="28" opacity="0.25" width="28" x="518" y="230" /><rect fill="#e53935" height="27" opacity="0.25" width="27" x="58" y="379" /><rect fill="#43a047" height="23" opacity="0.25" width="23" x="8" y="79" /><rect fill="#1e88e5" height="12" opacity="0.25" width="65" x="162" y="291" /><circle cx="473" cy="342" fill="#1e88e5" opacity="0.25" r="12" /><rect fill="#1e88e5" height="24" opacity="0.25" width="74" x="479" y="328" /><circle cx="184" cy="374" fill="#e53935" opacity="0.25" r="13" /><rect fill="#1e88e5" height="12" opacity="0.25" width="61" x="204" y="205" /><rect fill="#1e88e5" height="13" opacity="0.25" width="70" x="497" y="108" /><rect fill="#1e88e5" height="25" opacity="0.25" width="49" x="39" y="279" /><circle cx="218" cy="163" fill="#43a047" opacity="0.25" r="28" /><circle cx="389" cy="31" fill="#43a047" opacity="0.25" r="21" /><rect fill="#1e88e5" height="10" opacity="0.25" width="53" x="218" y="27" /><rect fill="#1e88e5" height="40" opacity="0.25" width="40" x="276" y="129" /><circle cx="145" cy="35" fill="#e53935" opacity="0.25" r="18" /><rect fill="#e53935" height="23" opacity="0.25" width="68" x="305" y="364" /><rect fill="#e53935" height="21" opacity="0.25" width="21" x="265" y="94" /><circle cx="350" cy="385" fill="#1e88e5" opacity="0.25" r="19" /><circle cx="357" cy="214" fill="#e53935" opacity="0.25" r="25" /><rect fill="#43a047" height="21" opacity="0.25" width="67" x="164" y="356" /><rect fill="#43a047" height="37" opacity="0.25" width="37" x="398" y="5" /><rect fill="#e53935" height="38" opacity="0.25" width="38" x="79" y="370" /><rect fill="#e53935" height="30" opacity="0.25" width="30" x="331" y="340" /><circle cx="469" cy="75" fill="#e53935" opacity="0.25" r="25" /><rect fill="#e53935" height="10" opacity="0.25" width="73" x="416" y="134" /><rect fill="#e53935" height="13" opacity="0.25" width="77" x="460" y="327" /><circle cx="192" cy="215" fill="#e53935" opacity="0.25" r="27" /><circle cx="386" cy="110" fill="#43a047" opacity="0.25" r="21" /><circle cx="590" cy="7" fill="#e53935" opacity="0.25" r="21" /><rect fill="#e53935" height="13" opacity="0.25" width="72" x="309" y="157" /><rect fill="#1e88e5" height="33" opacity="0.25" width="33" x="466" y="211" /><rect fill="#1e88e5" height="20" opacity="0.25" width="73" x="555" y="218" /><circle cx="469" cy="219" fill="#e53935" opacity="0.25" r="21" /><circle cx="166" cy="277" fill="#43a047" opacity="0.25" r="23" /><rect fill="#1e88e5" height="29" opacity="0.25" width="58" x="447" y="324" /><circle cx="106" cy="45" fill="#e53935" opacity="0.25" r="30" /><circle cx="421" cy="53" fill="#43a047" opacity="0.25" r="25" /><rect fill="#43a047" height="40" opacity="0.25" width="40" x="557" y="51" /><rect fill="#43a047" height="23" opacity="0.25" width="58" x="595" y="16" /><circle cx="465" cy="282" fill="#e53935" opacity="0.25" r="22" /><circle cx="480" cy="63" fill="#e53935" opacity="0.25" r="21" /><rect fill="#1e88e5" height="17" opacity="0.25" width="63" x="405" y="3" /><rect fill="#1e88e5" height="28" opacity="0.25" width="28" x="274" y="337" /><rect fill="#1e88e5" height="11" opacity="0.25" width="66" x="247" y="2" /><circle cx="157" cy="191" fill="#e53935" opacity="0.25" r="26" /><rect fill="#43a047" height="25" opacity="0.25" width="25" x="325" y="171" /><rect fill="#1e88e5" height="32" opacity="0.25" width="32" x="247" y="284" /><circle cx="402" cy="26" fill="#43a047" opacity="0.25" r="28" /><rect fill="#e53935" height="22" opacity="0.25" width="51" x="399" y="372" /><rect fill="#43a047" height="13" opacity="0.25" width="54" x="162" y="223" /><rect fill="#e53935" height="40" opacity="0.25" width="40" x="516" y="60" /><rect fill="#1e88e5" height="25" opacity="0.25" width="25" x="266" y="283" /><rect fill="#e53935" height="23" opacity="0.25" width="41" x="95" y="47" /><circle cx="156" cy="14" fill="#43a047" opacity="0.25" r="29" /><rect fill="#43a047" height="32" opacity="0.25" width="32" x="80" y="292" /><circle cx="133" cy="232" fill="#43a047" opacity="0.25" r="30" /><rect fill="#1e88e5" height="40" opacity="0.25" width="40" x="191" y="122" /><circle cx="198" cy="274" fill="#1e88e5" opacity="0.25" r="17" /><rect fill="#1e88e5" height="21" opacity="0.25" width="21" x="266" y="337" /><rect fill="#e53935" height="30" opacity="0.25" width="41" x="147" y="321" /><rect fill="#e53935" height="39" opacity="0.25" width="39" x="113" y="235" /><circle cx="145" cy="144" fill="#e53935" opacity="0.25" r="18" /><circle cx="79" cy="253" fill="#e53935" opacity="0.25" r="21" /><circle cx="103" cy="251" fill="#1e88e5" opacity="0.25" r="10" /><rect fill="#e53935" height="16" opacity="0.25" width="44" x="498" y="320" /><rect fill="#1e88e5" height="40" opacity="0.25" width="40" x="384" y="160" /><rect fill="#e53935" height="15" opacity="0.25" width="40" x="184" y="152" /><rect fill="#43a047" height="30" opacity="0.25" width="30" x="32" y="60" /><rect fill="#1e88e5" height="26" opacity="0.25" width="50" x="559" y="2" /><rect fill="#1e88e5" height="39" opacity="0.25" width="39" x="124" y="98" /><circle cx="23" cy="265" fill="#43a047" opacity="0.25" r="26" /><circle cx="373" cy="58" fill="#e53935" opacity="0.25" r="16" /><circle cx="141" cy="112" fill="#1e88e5" opacity="0.25" r="12" /><rect fill="#43a047" height="28" opacity="0.25" width="28" x="129" y="137" /><rect fill="#e53935" height="30" opacity="0.25" width="75" x="94" y="178" /><rect fill="#1e88e5" height="22" opacity="0.25" width="72" x="507" y="223" /><circle cx="177" cy="101" fill="#1e88e5" opacity="0.25" r="18" /><rect fill="#e53935" height="19" opacity="0.25" width="77" x="597" y="392" /><circle cx="499" cy="221" fill="#e53935" opacity="0.25" r="24" /><rect fill="#43a047" height="13" opacity="0.25" width="79" x="278" y="163" /><rect fill="#1e88e5" height="38" opacity="0.25" width="38" x="439" y="102" /><rect fill="#1e88e5" height="11" opacity="0.25" width="50" x="65" y="230" /><rect fill="#1e88e5" height="29" opacity="0.25" width="29" x="600" y="209" /><rect fill="#43a047" height="32" opacity="0.25" width="32" x="543" y="180" /><rect fill="#e53935" filter="url(#blur)" height="40" width="40" x="175" y="125" /><text fill="white" font-size="28px" font-weight="bold" text-anchor="middle" x="195.0" y="151.66666666666666">H</text><rect fill="#e53935" filter="url(#blur)" height="40" width="40" x="225" y="125" /><text fill="white" font-size="28px" font-weight="bold" text-anchor="middle" x="245.0" y="151.66666666666666">A</text><rect fill="#e53935" filter="url(#blur)" height="40" width="40" x="275" y="125" /><text fill="white" font-size="28px" font-weight="bold" text-anchor="middle" x="295.0" y="151.66666666666666">P</text><rect fill="#e53935" filter="url(#blur)" height="40" width="40" x="325" y="125" /><text fill="white" font-size="28px" font-weight="bold" text-anchor="middle" x="345.0" y="151.66666666666666">P</text><rect fill="#e53935" filter="url(#blur)" height="40" width="40" x="375" y="125" /><text fill="white" font-size="28px" font-weight="bold" text-anchor="middle" x="395.0" y="151.66666666666666">Y</text><rect fill="#1e88e5" filter="url(#blur)" height="40" width="40" x="0" y="175" /><text fill="white" font-size="28px" font-weight="bold" text-anchor="middle" x="20.0" y="201.66666666666666">I</text><rect fill="#1e88e5" filter="url(#blur)" height="40" width="40" x="50" y="175" /><text fill="white" font-size="28px" font-weight="bold" text-anchor="middle" x="70.0" y="201.66666666666666">N</text><rect fill="#1e88e5" filter="url(#blur)" height="40" width="40" x="100" y="175" /><text fill="white" font-size="28px" font-weight="bold" text-anchor="middle" x="120.0" y="201.66666666666666">D</text><rect fill="#1e88e5" filter="url(#blur)" height="40" width="40" x="150" y="175" /><text fill="white" font-size="28px" font-weight="bold" text-anchor="middle" x="170.0" y="201.66666666666666">E</text><rect fill="#1e88e5" filter="url(#blur)" height="40" width="40" x="200" y="175" /><text fill="white" font-size="28px" font-weight="bold" text-anchor="middle" x="220.0" y="201.66666666666666">P</text><rect fill="#1e88e5" filter="url(#blur)" height="40" width="40" x="250" y="175" /><text fill="white" font-size="28px" font-weight="bold" text-anchor="middle" x="270.0" y="201.66666666666666">E</text><rect fill="#1e88e5" filter="url(#blur)" height="40" width="40" x="300" y="175" /><text fill="white" font-size="28px" font-weight="bold" text-anchor="middle" x="320.0" y="201.66666666666666">N</text><rect fill="#1e88e5" filter="url(#blur)" height="40" width="40" x="350" y="175" /><text fill="white" font-size="28px" font-weight="bold" text-anchor="middle" x="370.0" y="201.66666666666666">D</text><rect fill="#1e88e5" filter="url(#blur)" height="40" width="40" x="400" y="175" /><text fill="white" font-size="28px" font-weight="bold" text-anchor="middle" x="420.0" y="201.66666666666666">E</text><rect fill="#1e88e5" filter="url(#blur)" height="40" width="40" x="450" y="175" /><text fill="white" font-size="28px" font-weight="bold" text-anchor="middle" x="470.0" y="201.66666666666666">N</text><rect fill="#1e88e5" filter="url(#blur)" height="40" width="40" x="500" y="175" /><text fill="white" font-size="28px" font-weight="bold" text-anchor="middle" x="520.0" y="201.66666666666666">C</text><rect fill="#1e88e5" filter="url(#blur)" height="40" width="40" x="550" y="175" /><text fill="white" font-size="28px" font-weight="bold" text-anchor="middle" x="570.0" y="201.66666666666666">E</text><rect fill="#43a047" filter="url(#blur)" height="40" width="40" x="225" y="225" /><text fill="white" font-size="28px" font-weight="bold" text-anchor="middle" x="245.0" y="251.66666666666666">D</text><rect fill="#43a047" filter="url(#blur)" height="40" width="40" x="275" y="225" /><text fill="white" font-size="28px" font-weight="bold" text-anchor="middle" x="295.0" y="251.66666666666666">A</text><rect fill="#43a047" filter="url(#blur)" height="40" width="40" x="325" y="225" /><text fill="white" font-size="28px" font-weight="bold" text-anchor="middle" x="345.0" y="251.66666666666666">Y</text></svg>