<?xml version="1.0" encoding="utf-8" ?>
<svg baseProfile="full" height="400" version="1.1" width="600" xmlns="http://www.w3.org/2000/svg" xmlns:ev="http://www.w3.org/2001/xml-events" xmlns:xlink="http://www.w3.org/1999/xlink"><defs><linearGradient id="bg-gradient" x1="0" x2="1" y1="0" y2="1"><stop offset="0.00" stop-color="#e53935" stop-opacity="0.2" /><stop offset="0.50" stop-color="#1e88e5" stop-opacity="0.2" /><stop offset="1.00" stop-color="#43a047" stop-opacity="0.2" /></linearGradient><filter id="blur"><feGaussianBlur in="SourceGraphic" stdDeviation="2" /></filter></defs><rect fill="url(#bg-gradient)" height="400" width="600" x="0" y="0" /><rect fill="#1e88e5" height="26" opacity="0.25" width="77" x="370" y="380" /><rect fill="#1e88e5" height="28" opacity="0.25" width="28" x="243" y="332" /><circle cx="393" cy="44" fill="#43a047" opacity="0.25" r="13" /><circle cx="123" cy="21" fill="#43a047" opacity="0.25" r="28" /><rect fill="#e53935" height="34" opacity="0.25" width="34" x="197" y="360" /><circle cx="559" cy="316" fill="#e53935" opacity="0.25" r="20" /><rect fill="#43a047" height="27" opacity="0.25" width="52" x="485" y="389" /><rect fill="#e53935" height="26" opacity="0.25" width="26" x="44" y="65" /><rect fill="#43a047" height="21" opacity="0.25" width="75" x="258" y="388" /><rect fill="#1e88e5" height="25" opacity="0.25" width="44" x="120" y="223" /><rect fill="#43a047" height="29" opacity="0.25" width="50" x="515" y="11" /><rect fill="#43a047" height="28" opacity="0.25" width="42" x="132" y="148" /><circle cx="194" cy="379" fill="#43a047" opacity="0.25" r="22" /><rect fill="#43a047" height="15" opacity="0.25" width="44" x="545" y="262" /><rect fill="#43a047" height="22" opacity="0.25" width="64" x="393" y="287" /><rect fill="#1e88e5" height="20" opacity="0.25" width="20" x="211" y="94" /><circle cx="223" cy="303" fill="#43a047" opacity="0.25" r="10" /><rect fill="#1e88e5" height="36" opacity="0.25" width="36" x="515" y="362" /><rect fill="#1e88e5" height="27" opacity="0.25" width="57" x="225" y="151" /><circle cx="229" cy="23" fill="#e53935" opacity="0.25" r="27" /><circle cx="40" cy="327" fill="#1e88e5" opacity="0.25" r="14" /><rect fill="#e53935" height="16" opacity="0.25" width="55" x="276" y="26" /><rect fill="#e53935" height="31" opacity="0.25" width="31" x="1" y="332" /><rect fill="#43a047" height="22" opacity="0.25" width="22" x="377" y="166" /><rect fill="#43a047" height="24" opacity="0.25" width="24" x="270" y="369" /><rect fill="#43a047" height="30" opacity="0.25" width="43" x="301" y="166" /><circle cx="224" cy="374" fill="#1e88e5" opacity="0.25" r="18" /><circle cx="16" cy="275" fill="#1e88e5" opacity="0.25" r="28" /><circle cx="391" cy="334" fill="#43a047" opacity="0.25" r="18" /><rect fill="#43a047" height="34" opacity="0.25" width="34" x="564" y="105" /><circle cx="275" cy="104" fill="#1e88e5" opacity="0.25" r="28" /><rect fill="#1e88e5" height="27" opacity="0.25" width="27" x="159" y="228" /><rect fill="#43a047" height="24" opacity="0.25" width="24" x="444" y="188" /><rect fill="#e53935" height="15" opacity="0.25" width="69" x="507" y="92" /><circle cx="583" cy="251" fill="#e53935" opacity="0.25" r="15" /><rect fill="#1e88e5" height="25" opacity="0.25" width="25" x="21" y="158" /><circle cx="192" cy="35" fill="#1e88e5" opacity="0.25" r="14" /><circle cx="251" cy="232" fill="#1e88e5" opacity="0.25" r="30" /><rect fill="#e53935" height="29" opacity="0.25" width="40" x="539" y="70" /><circle cx="393" cy="10" fill="#1e88e5" opacity="0.25" r="13" /><circle cx="44" cy="67" fill="#43a047" opacity="0.25" r="17" /><circle cx="146" cy="321" fill="#1e88e5" opacity="0.25" r="29" /><circle cx="108" cy="277" fill="#e53935" opacity="0.25" r="20" /><rect fill="#e53935" height="35" opacity="0.25" width="35" x="207" y="71" /><rect fill="#1e88e5" height="30" opacity="0.25" width="30" x="167" y="157" /><rect fill="#e53935" height="18" opacity="0.25" width="74" x="249" y="28" /><rect fill="#43a047" height="21" opacity="0.25" width="21" x="126" y="10" /><circle cx="303" cy="52" fill="#43a047" opacity="0.25" r="26" /><rect fill="#e53935" height="17" opacity="0.25" width="41" x="1" y="114" /><rect fill="#1e88e5" height="17" opacity="0.25" width="58" x="150" y="180" /><rect fill="#1e88e5" height="25" opacity="0.25" width="25" x="115" y="251" /><circle cx="104" cy="144" fill="#e53935" opacity="0.25" r="21" /><circle cx="341" cy="60" fill="#43a047" opacity="0.25" r="21" /><circle cx="154" cy="91" fill="#e53935" opacity="0.25" r="23" /><rect fill="#1e88e5" height="33" opacity="0.25" width="33" x="185" y="347" /><circle cx="308" cy="319" fill="#43a047" opacity="0.25" r="19" /><rect fill="#e53935" height="18" opacity="0.25" width="63" x="277" y="255" /><rect fill="#e53935" height="40" opacity="0.25" width="40" x="2" y="76" /><circle cx="151" cy="199" fill="#1e88e5" opacity="0.25" r="24" /><rect fill="#1e88e5" height="38" opacity="0.25" width="38" x="68" y="57" /><rect fill="#43a047" height="20" opacity="0.25" width="45" x="285" y="74" /><circle cx="394" cy="180" fill="#e53935" opacity="0.25" r="20" /><rect fill="#1e88e5" height="29" opacity="0.25" width="66" x="492" y="355" /><rect fill="#1e88e5" height="27" opacity="0.25" width="27" x="141" y="334" /><rect fill="#1e88e5" height="27" opacity="0.25" width="74" x="562" y="254" /><rect fill="#43a047" height="12" opacity="0.25" width="64" x="549" y="117" /><rect fill="#43a047" height="38" opacity="0.25" width="38" x="431" y="269" /><rect fill="#43a047" height="22" opacity="0.25" width="22" x="224" y="359" /><circle cx="2" cy="104" fill="#1e88e5" opacity="0.25" r="10" /><rect fill="#43a047" height="11" opacity="0.25" width="47" x="485" y="68" /><rect fill="#1e88e5" height="14" opacity="0.25" width="69" x="142" y="150" /><rect fill="#1e88e5" height="27" opacity="0.25" width="27" x="248" y="107" /><circle cx="141" cy="60" fill="#43a047" opacity="0.25" r="14" /><rect fill="#43a047" height="21" opacity="0.25" width="67" x="26" y="356" /><circle cx="108" cy="339" fill="#43a047" opacity="0.25" r="28" /><circle cx="161" cy="15" fill="#1e88e5" opacity="0.25" r="14" /><rect fill="#e53935" height="10" opacity="0.25" width="44" x="80" y="125" /><rect fill="#1e88e5" height="25" opacity="0.25" width="25" x="153" y="391" /><rect fill="#43a047" height="19" opacity="0.25" width="73" x="143" y="383" /><rect fill="#1e88e5" height="19" opacity="0.25" width="40" x="345" y="227" /><circle cx="61" cy="328" fill="#e53935" opacity="0.25" r="11" /><rect fill="#e53935" height="20" opacity="0.25" width="20" x="515" y="82" /><rect fill="#1e88e5" height="28" opacity="0.25" width="56" x="465" y="283" /><rect fill="#1e88e5" height="25" opacity="0.25" width="25" x="232" y="216" /><rect fill="#e53935" height="16" opacity="0.25" width="48" x="534" y="193" /><rect fill="#43a047" height="15" opacity="0.25" width="65" x="57" y="112" /><rect fill="#43a047" height="34" opacity="0.25" width="34" x="79" y="354" /><rect fill="#1e88e5" height="11" opacity="0.25" width="50" x="414" y="194" /><rect fill="#43a047" height="13" opacity="0.25" width="57" x="434" y="99" /><circle cx="371" cy="308" fill="#e53935" opacity="0.25" r="20" /><circle cx="288" cy="83" fill="#e53935" opacity="0.25" r="27" /><circle cx="216" cy="305" fill="#e53935" opacity="0.25" r="10" /><rect fill="#e53935" height="11" opacity="0.25" width="80" x="564" y="103" /><circle cx="87" cy="291" fill="#1e88e5" opacity="0.25" r="28" /><circle cx="495" cy="23" fill="#43a047" opacity="0.25" r="11" /><rect fill="#e53935" height="19" opacity="0.25" width="62" x="316" y="4" /><rect fill="#43a047" height="21" opacity="0.25" width="65" x="199" y="161" /><circle cx="99" cy="169" fill="#43a047" opacity="0.25" r="23" /><rect fill="#43a047" height="24" opacity="0.25" width="24" x="103" y="257" /><circle cx="391" cy="244" fill="#43a047" opacity="0.25" r="28" /><rect fill="#e53935" filter="url(#blur)" height="40" width="40" x="175" y="150" /><text fill="white" font-size="28px" font-weight="bold" text-anchor="middle" x="195.0" y="176.66666666666666">H</text><rect fill="#e53935" filter="url(#blur)" height="40" width="40" x="225" y="150" /><text fill="white" font-size="28px" font-weight="bold" text-anchor="middle" x="245.0" y="176.66666666666666">A</text><rect fill="#e53935" filter="url(#blur)" height="40" width="40" x="275" y="150" /><text fill="white" font-size="28px" font-weight="bold" text-anchor="middle" x="295.0" y="176.66666666666666">P</text><rect fill="#e53935" filter="url(#blur)" height="40" width="40" x="325" y="150" /><text fill="white" font-size="28px" font-weight="bold" text-anchor="middle" x="345.0" y="176.66666666666666">P</text><rect fill="#e53935" filter="url(#blur)" height="40" width="40" x="375" y="150" /><text fill="white" font-size="28px" font-weight="bold" text-anchor="middle" x="395.0" y="176.66666666666666">Y</text><rect fill="#1e88e5" filter="url(#blur)" height="40" width="40" x="100" y="200" /><text fill="white" font-size="28px" font-weight="bold" text-anchor="middle" x="120.0" y="226.66666666666666">B</text><rect fill="#1e88e5" filter="url(#blur)" height="40" width="40" x="150" y="200" /><text fill="white" font-size="28px" font-weight="bold" text-anchor="middle" x="170.0" y="226.66666666666666">I</text><rect fill="#1e88e5" filter="url(#blur)" height="40" width="40" x="200" y="200" /><text fill="white" font-size="28px" font-weight="bold" text-anchor="middle" x="220.0" y="226.66666666666666">R</text><rect fill="#1e88e5" filter="url(#blur)" height="40" width="40" x="250" y="200" /><text fill="white" font-size="28px" font-weight="bold" text-anchor="middle" x="270.0" y="226.66666666666666">T</text><rect fill="#1e88e5" filter="url(#blur)" height="40" width="40" x="300" y="200" /><text fill="white" font-size="28px" font-weight="bold" text-anchor="middle" x="320.0" y="226.66666666666666">H</text><rect fill="#1e88e5" filter="url(#blur)" height="40" width="40" x="350" y="200" /><text fill="white" font-size="28px" font-weight="bold" text-anchor="middle" x="370.0" y="226.66666666666666">D</text><rect fill="#1e88e5" filter="url(#blur)" height="40" width="40" x="400" y="200" /><text fill="white" font-size="28px" font-weight="bold" text-anchor="middle" x="420.0" y="226.66666666666666">A</text><rect fill="#1e88e5" filter="url(#blur)" height="40" width="40" x="450" y="200" /><text fill="white" font-size="28px" font-weight="bold" text-anchor="middle" x="470.0" y="226.66666666666666">Y</text></svg>