<?xml version="1.0" encoding="utf-8" ?>
<svg baseProfile="full" height="400" version="1.1" width="600" xmlns="http://www.w3.org/2000/svg" xmlns:ev="http://www.w3.org/2001/xml-events" xmlns:xlink="http://www.w3.org/1999/xlink"><defs><linearGradient id="bg-gradient" x1="0" x2="1" y1="0" y2="1"><stop offset="0.00" stop-color="#ff7043" stop-opacity="0.2" /><stop offset="0.50" stop-color="#ff8a65" stop-opacity="0.2" /><stop offset="1.00" stop-color="#d81b60" stop-opacity="0.2" /></linearGradient><filter id="blur"><feGaussianBlur in="SourceGraphic" stdDeviation="2" /></filter></defs><rect fill="url(#bg-gradient)" height="400" width="600" x="0" y="0" /><rect fill="#ff8a65" height="28" opacity="0.25" width="28" x="39" y="315" /><rect fill="#ff8a65" height="10" opacity="0.25" width="78" x="256" y="400" /><circle cx="582" cy="338" fill="#ff8a65" opacity="0.25" r="20" /><rect fill="#ff7043" height="24" opacity="0.25" width="41" x="454" y="236" /><circle cx="37" cy="183" fill="#ff8a65" opacity="0.25" r="25" /><rect fill="#d81b60" height="21" opacity="0.25" width="21" x="223" y="209" /><rect fill="#ff7043" height="37" opacity="0.25" width="37" x="283" y="312" /><rect fill="#ff7043" height="18" opacity="0.25" width="56" x="451" y="92" /><rect fill="#ff8a65" height="15" opacity="0.25" width="80" x="130" y="116" /><circle cx="50" cy="119" fill="#d81b60" opacity="0.25" r="13" /><rect fill="#ff7043" height="36" opacity="0.25" width="36" x="188" y="350" /><rect fill="#d81b60" height="17" opacity="0.25" width="75" x="324" y="21" /><circle cx="265" cy="131" fill="#d81b60" opacity="0.25" r="10" /><rect fill="#ff8a65" height="21" opacity="0.25" width="21" x="553" y="367" /><rect fill="#ff7043" height="22" opacity="0.25" width="22" x="358" y="55" /><rect fill="#ff8a65" height="22" opacity="0.25" width="22" x="115" y="261" /><circle cx="333" cy="292" fill="#ff7043" opacity="0.25" r="21" /><rect fill="#ff8a65" height="33" opacity="0.25" width="33" x="73" y="328" /><rect fill="#ff7043" height="21" opacity="0.25" width="78" x="25" y="167" /><rect fill="#ff8a65" height="29" opacity="0.25" width="58" x="383" y="240" /><circle cx="377" cy="22" fill="#ff7043" opacity="0.25" r="19" /><circle cx="26" cy="54" fill="#d81b60" opacity="0.25" r="29" /><circle cx="523" cy="366" fill="#ff8a65" opacity="0.25" r="26" /><rect fill="#d81b60" height="32" opacity="0.25" width="32" x="352" y="110" /><rect fill="#ff7043" height="40" opacity="0.25" width="40" x="153" y="195" /><circle cx="229" cy="289" fill="#ff7043" opacity="0.25" r="26" /><rect fill="#d81b60" height="33" opacity="0.25" width="33" x="561" y="375" /><rect fill="#d81b60" height="21" opacity="0.25" width="21" x="124" y="270" /><rect fill="#ff8a65" height="34" opacity="0.25" width="34" x="537" y="266" /><rect fill="#ff8a65" height="17" opacity="0.25" width="58" x="199" y="294" /><rect fill="#ff7043" height="20" opacity="0.25" width="69" x="370" y="118" /><rect fill="#ff7043" height="33" opacity="0.25" width="33" x="246" y="227" /><rect fill="#ff7043" height="12" opacity="0.25" width="72" x="360" y="286" /><rect fill="#d81b60" height="24" opacity="0.25" width="54" x="495" y="309" /><rect fill="#ff7043" height="17" opacity="0.25" width="74" x="583" y="64" /><rect fill="#d81b60" height="29" opacity="0.25" width="48" x="598" y="340" /><rect fill="#ff8a65" height="12" opacity="0.25" width="47" x="349" y="160" /><rect fill="#ff8a65" height="25" opacity="0.25" width="76" x="517" y="75" /><rect fill="#ff7043" height="20" opacity="0.25" width="20" x="184" y="232" /><circle cx="428" cy="134" fill="#ff7043" opacity="0.25" r="27" /><rect fill="#ff8a65" height="21" opacity="0.25" width="21" x="103" y="64" /><rect fill="#ff7043" height="26" opacity="0.25" width="48" x="170" y="37" /><rect fill="#ff8a65" height="24" opacity="0.25" width="24" x="432" y="181" /><rect fill="#d81b60" height="13" opacity="0.25" width="58" x="570" y="123" /><rect fill="#ff8a65" height="12" opacity="0.25" width="42" x="110" y="369" /><rect fill="#ff8a65" height="40" opacity="0.25" width="40" x="459" y="209" /><rect fill="#d81b60" height="14" opacity="0.25" width="70" x="446" y="148" /><rect fill="#ff7043" height="24" opacity="0.25" width="24" x="521" y="42" /><circle cx="378" cy="345" fill="#d81b60" opacity="0.25" r="30" /><rect fill="#ff8a65" height="26" opacity="0.25" width="51" x="328" y="224" /><rect fill="#d81b60" height="23" opacity="0.25" width="23" x="286" y="395" /><circle cx="505" cy="174" fill="#ff8a65" opacity="0.25" r="11" /><rect fill="#d81b60" height="36" opacity="0.25" width="36" x="537" y="296" /><rect fill="#ff8a65" height="15" opacity="0.25" width="60" x="330" y="196" /><circle cx="215" cy="220" fill="#ff7043" opacity="0.25" r="26" /><rect fill="#d81b60" height="19" opacity="0.25" width="62" x="321" y="50" /><circle cx="294" cy="140" fill="#ff7043" opacity="0.25" r="25" /><rect fill="#ff7043" height="29" opacity="0.25" width="56" x="173" y="147" /><circle cx="285" cy="72" fill="#ff7043" opacity="0.25" r="13" /><circle cx="520" cy="386" fill="#d81b60" opacity="0.25" r="15" /><circle cx="40" cy="276" fill="#d81b60" opacity="0.25" r="27" /><circle cx="500" cy="13" fill="#ff7043" opacity="0.25" r="21" /><circle cx="584" cy="218" fill="#ff8a65" opacity="0.25" r="24" /><rect fill="#ff7043" height="23" opacity="0.25" width="23" x="464" y="151" /><rect fill="#d81b60" height="33" opacity="0.25" width="33" x="122" y="227" /><rect fill="#ff8a65" height="13" opacity="0.25" width="57" x="88" y="70" /><rect fill="#ff7043" height="20" opacity="0.25" width="44" x="227" y="372" /><circle cx="343" cy="141" fill="#d81b60" opacity="0.25" r="24" /><rect fill="#d81b60" height="22" opacity="0.25" width="22" x="525" y="344" /><rect fill="#d81b60" height="33" opacity="0.25" width="33" x="322" y="19" /><circle cx="533" cy="162" fill="#d81b60" opacity="0.25" r="16" /><rect fill="#d81b60" height="40" opacity="0.25" width="40" x="36" y="324" /><circle cx="140" cy="300" fill="#ff7043" opacity="0.25" r="22" /><circle cx="200" cy="135" fill="#d81b60" opacity="0.25" r="25" /><circle cx="191" cy="375" fill="#ff8a65" opacity="0.25" r="25" /><rect fill="#ff7043" height="26" opacity="0.25" width="45" x="203" y="325" /><rect fill="#d81b60" height="33" opacity="0.25" width="33" x="219" y="1" /><circle cx="571" cy="312" fill="#ff8a65" opacity="0.25" r="16" /><rect fill="#ff7043" height="28" opacity="0.25" width="28" x="39" y="214" /><rect fill="#ff8a65" height="40" opacity="0.25" width="40" x="597" y="120" /><rect fill="#ff8a65" height="19" opacity="0.25" width="51" x="543" y="336" /><circle cx="496" cy="250" fill="#ff8a65" opacity="0.25" r="30" /><rect fill="#d81b60" height="19" opacity="0.25" width="70" x="365" y="278" /><circle cx="115" cy="386" fill="#ff7043" opacity="0.25" r="19" /><rect fill="#ff8a65" height="13" opacity="0.25" width="67" x="333" y="126" /><circle cx="326" cy="338" fill="#ff8a65" opacity="0.25" r="13" /><rect fill="#d81b60" height="25" opacity="0.25" width="48" x="407" y="360" /><rect fill="#d81b60" height="10" opacity="0.25" width="55" x="421" y="351" /><rect fill="#ff8a65" height="11" opacity="0.25" width="66" x="519" y="110" /><rect fill="#ff8a65" height="30" opacity="0.25" width="30" x="267" y="345" /><rect fill="#ff8a65" height="18" opacity="0.25" width="65" x="452" y="217" /><circle cx="497" cy="372" fill="#ff8a65" opacity="0.25" r="17" /><rect fill="#d81b60" height="23" opacity="0.25" width="68" x="46" y="157" /><circle cx="170" cy="274" fill="#d81b60" opacity="0.25" r="16" /><rect fill="#ff7043" height="39" opacity="0.25" width="39" x="337" y="66" /><rect fill="#ff7043" height="22" opacity="0.25" width="22" x="21" y="194" /><rect fill="#ff8a65" height="37" opacity="0.25" width="37" x="361" y="392" /><circle cx="50" cy="265" fill="#d81b60" opacity="0.25" r="16" /><rect fill="#d81b60" height="22" opacity="0.25" width="74" x="203" y="80" /><rect fill="#ff7043" height="31" opacity="0.25" width="31" x="297" y="82" /><rect fill="#ff7043" filter="url(#blur)" height="40" width="40" x="175" y="125" /><text fill="white" font-size="28px" font-weight="bold" text-anchor="middle" x="195.0" y="151.66666666666666">H</text><rect fill="#ff7043" filter="url(#blur)" height="40" width="40" x="225" y="125" /><text fill="white" font-size="28px" font-weight="bold" text-anchor="middle" x="245.0" y="151.66666666666666">A</text><rect fill="#ff7043" filter="url(#blur)" height="40" width="40" x="275" y="125" /><text fill="white" font-size="28px" font-weight="bold" text-anchor="middle" x="295.0" y="151.66666666666666">P</text><rect fill="#ff7043" filter="url(#blur)" height="40" width="40" x="325" y="125" /><text fill="white" font-size="28px" font-weight="bold" text-anchor="middle" x="345.0" y="151.66666666666666">P</text><rect fill="#ff7043" filter="url(#blur)" height="40" width="40" x="375" y="125" /><text fill="white" font-size="28px" font-weight="bold" text-anchor="middle" x="395.0" y="151.66666666666666">Y</text><rect fill="#ff8a65" filter="url(#blur)" height="40" width="40" x="25" y="175" /><text fill="white" font-size="28px" font-weight="bold" text-anchor="middle" x="45.0" y="201.66666666666666">V</text><rect fill="#ff8a65" filter="url(#blur)" height="40" width="40" x="75" y="175" /><text fill="white" font-size="28px" font-weight="bold" text-anchor="middle" x="95.0" y="201.66666666666666">A</text><rect fill="#ff8a65" filter="url(#blur)" height="40" width="40" x="125" y="175" /><text fill="white" font-size="28px" font-weight="bold" text-anchor="middle" x="145.0" y="201.66666666666666">L</text><rect fill="#ff8a65" filter="url(#blur)" height="40" width="40" x="175" y="175" /><text fill="white" font-size="28px" font-weight="bold" text-anchor="middle" x="195.0" y="201.66666666666666">E</text><rect fill="#ff8a65" filter="url(#blur)" height="40" width="40" x="225" y="175" /><text fill="white" font-size="28px" font-weight="bold" text-anchor="middle" x="245.0" y="201.66666666666666">N</text><rect fill="#ff8a65" filter="url(#blur)" height="40" width="40" x="275" y="175" /><text fill="white" font-size="28px" font-weight="bold" text-anchor="middle" x="295.0" y="201.66666666666666">T</text><rect fill="#ff8a65" filter="url(#blur)" height="40" width="40" x="325" y="175" /><text fill="white" font-size="28px" font-weight="bold" text-anchor="middle" x="345.0" y="201.66666666666666">I</text><rect fill="#ff8a65" filter="url(#blur)" height="40" width="40" x="375" y="175" /><text fill="white" font-size="28px" font-weight="bold" text-anchor="middle" x="395.0" y="201.66666666666666">N</text><rect fill="#ff8a65" filter="url(#blur)" height="40" width="40" x="425" y="175" /><text fill="white" font-size="28px" font-weight="bold" text-anchor="middle" x="445.0" y="201.66666666666666">E</text><rect fill="#ff8a65" filter="url(#blur)" height="40" width="40" x="475" y="175" /><text fill="white" font-size="28px" font-weight="bold" text-anchor="middle" x="495.0" y="201.66666666666666">'</text><rect fill="#ff8a65" filter="url(#blur)" height="40" width="40" x="525" y="175" /><text fill="white" font-size="28px" font-weight="bold" text-anchor="middle" x="545.0" y="201.66666666666666">S</text><rect fill="#d81b60" filter="url(#blur)" height="40" width="40" x="225" y="225" /><text fill="white" font-size="28px" font-weight="bold" text-anchor="middle" x="245.0" y="251.66666666666666">D</text><rect fill="#d81b60" filter="url(#blur)" height="40" width="40" x="275" y="225" /><text fill="white" font-size="28px" font-weight="bold" text-anchor="middle" x="295.0" y="251.66666666666666">A</text><rect fill="#d81b60" filter="url(#blur)" height="40" width="40" x="325" y="225" /><text fill="white" font-size="28px" font-weight="bold" text-anchor="middle" x="345.0" y="251.66666666666666">Y</text></svg>