<?xml version="1.0" encoding="utf-8" ?>
<svg baseProfile="full" height="400" version="1.1" width="600" xmlns="http://www.w3.org/2000/svg" xmlns:ev="http://www.w3.org/2001/xml-events" xmlns:xlink="http://www.w3.org/1999/xlink"><defs><linearGradient id="bg-gradient" x1="0" x2="1" y1="0" y2="1"><stop offset="0.00" stop-color="#e53935" stop-opacity="0.2" /><stop offset="0.50" stop-color="#1e88e5" stop-opacity="0.2" /><stop offset="1.00" stop-color="#43a047" stop-opacity="0.2" /></linearGradient><filter id="blur"><feGaussianBlur in="SourceGraphic" stdDeviation="2" /></filter></defs><rect fill="url(#bg-gradient)" height="400" width="600" x="0" y="0" /><circle cx="184" cy="165" fill="#e53935" opacity="0.25" r="23" /><circle cx="251" cy="37" fill="#1e88e5" opacity="0.25" r="16" /><rect fill="#1e88e5" height="30" opacity="0.25" width="30" x="380" y="74" /><circle cx="326" cy="352" fill="#e53935" opacity="0.25" r="10" /><rect fill="#1e88e5" height="38" opacity="0.25" width="38" x="218" y="238" /><rect fill="#e53935" height="19" opacity="0.25" width="64" x="575" y="33" /><rect fill="#e53935" height="23" opacity="0.25" width="23" x="539" y="111" /><rect fill="#1e88e5" height="40" opacity="0.25" width="40" x="76" y="293" /><rect fill="#43a047" height="16" opacity="0.25" width="60" x="445" y="162" /><circle cx="505" cy="255" fill="#e53935" opacity="0.25" r="11" /><rect fill="#1e88e5" height="15" opacity="0.25" width="68" x="122" y="63" /><rect fill="#1e88e5" height="38" opacity="0.25" width="38" x="392" y="121" /><circle cx="18" cy="329" fill="#1e88e5" opacity="0.25" r="28" /><circle cx="291" cy="67" fill="#1e88e5" opacity="0.25" r="22" /><circle cx="540" cy="20" fill="#43a047" opacity="0.25" r="20" /><rect fill="#e53935" height="23" opacity="0.25" width="23" x="71" y="240" /><rect fill="#43a047" height="21" opacity="0.25" width="60" x="308" y="140" /><rect fill="#e53935" height="25" opacity="0.25" width="60" x="569" y="396" /><rect fill="#e53935" height="34" opacity="0.25" width="34" x="402" y="152" /><rect fill="#43a047" height="13" opacity="0.25" width="79" x="124" y="191" /><circle cx="48" cy="5" fill="#e53935" opacity="0.25" r="14" /><circle cx="446" cy="115" fill="#1e88e5" opacity="0.25" r="15" /><circle cx="377" cy="275" fill="#e53935" opacity="0.25" r="10" /><rect fill="#e53935" height="23" opacity="0.25" width="23" x="265" y="22" /><circle cx="76" cy="135" fill="#1e88e5" opacity="0.25" r="20" /><rect fill="#43a047" height="25" opacity="0.25" width="25" x="388" y="138" /><circle cx="471" cy="61" fill="#43a047" opacity="0.25" r="14" /><rect fill="#e53935" height="24" opacity="0.25" width="80" x="598" y="211" /><rect fill="#e53935" height="27" opacity="0.25" width="27" x="534" y="270" /><rect fill="#1e88e5" height="30" opacity="0.25" width="30" x="501" y="143" /><rect fill="#1e88e5" height="28" opacity="0.25" width="28" x="231" y="47" /><rect fill="#43a047" height="17" opacity="0.25" width="75" x="84" y="180" /><rect fill="#43a047" height="22" opacity="0.25" width="22" x="210" y="355" /><circle cx="61" cy="108" fill="#1e88e5" opacity="0.25" r="10" /><rect fill="#e53935" height="26" opacity="0.25" width="26" x="479" y="197" /><rect fill="#e53935" height="26" opacity="0.25" width="77" x="348" y="106" /><rect fill="#1e88e5" height="34" opacity="0.25" width="34" x="319" y="362" /><rect fill="#e53935" height="24" opacity="0.25" width="24" x="516" y="54" /><circle cx="394" cy="231" fill="#1e88e5" opacity="0.25" r="29" /><rect fill="#e53935" height="22" opacity="0.25" width="22" x="409" y="96" /><rect fill="#1e88e5" height="28" opacity="0.25" width="59" x="168" y="351" /><rect fill="#e53935" height="23" opacity="0.25" width="23" x="150" y="236" /><rect fill="#e53935" height="34" opacity="0.25" width="34" x="246" y="8" /><circle cx="29" cy="243" fill="#1e88e5" opacity="0.25" r="26" /><rect fill="#1e88e5" height="12" opacity="0.25" width="75" x="271" y="60" /><rect fill="#1e88e5" height="26" opacity="0.25" width="65" x="217" y="77" /><rect fill="#43a047" height="18" opacity="0.25" width="68" x="341" y="27" /><rect fill="#e53935" height="23" opacity="0.25" width="64" x="50" y="332" /><circle cx="193" cy="206" fill="#1e88e5" opacity="0.25" r="15" /><rect fill="#1e88e5" height="35" opacity="0.25" width="35" x="542" y="311" /><rect fill="#1e88e5" height="21" opacity="0.25" width="21" x="111" y="348" /><rect fill="#e53935" height="23" opacity="0.25" width="23" x="113" y="112" /><circle cx="589" cy="136" fill="#e53935" opacity="0.25" r="17" /><circle cx="103" cy="141" fill="#43a047" opacity="0.25" r="17" /><rect fill="#43a047" height="32" opacity="0.25" width="32" x="414" y="200" /><circle cx="274" cy="253" fill="#e53935" opacity="0.25" r="16" /><circle cx="355" cy="326" fill="#e53935" opacity="0.25" r="19" /><rect fill="#43a047" height="20" opacity="0.25" width="20" x="294" y="375" /><circle cx="515" cy="358" fill="#e53935" opacity="0.25" r="29" /><rect fill="#43a047" height="15" opacity="0.25" width="55" x="312" y="352" /><rect fill="#43a047" height="20" opacity="0.25" width="51" x="71" y="85" /><rect fill="#e53935" height="23" opacity="0.25" width="70" x="13" y="341" /><rect fill="#e53935" height="15" opacity="0.25" width="44" x="181" y="135" /><rect fill="#e53935" height="38" opacity="0.25" width="38" x="360" y="242" /><circle cx="253" cy="241" fill="#1e88e5" opacity="0.25" r="13" /><circle cx="580" cy="348" fill="#e53935" opacity="0.25" r="19" /><circle cx="515" cy="85" fill="#43a047" opacity="0.25" r="14" /><circle cx="311" cy="376" fill="#e53935" opacity="0.25" r="20" /><rect fill="#1e88e5" height="25" opacity="0.25" width="56" x="359" y="279" /><rect fill="#1e88e5" height="19" opacity="0.25" width="62" x="469" y="6" /><rect fill="#1e88e5" height="39" opacity="0.25" width="39" x="530" y="396" /><rect fill="#e53935" height="30" opacity="0.25" width="73" x="276" y="351" /><circle cx="420" cy="112" fill="#e53935" opacity="0.25" r="14" /><rect fill="#1e88e5" height="23" opacity="0.25" width="76" x="31" y="125" /><rect fill="#e53935" height="30" opacity="0.25" width="64" x="91" y="99" /><circle cx="557" cy="230" fill="#1e88e5" opacity="0.25" r="26" /><circle cx="357" cy="169" fill="#1e88e5" opacity="0.25" r="22" /><rect fill="#1e88e5" height="26" opacity="0.25" width="26" x="282" y="158" /><circle cx="532" cy="359" fill="#43a047" opacity="0.25" r="20" /><rect fill="#e53935" height="38" opacity="0.25" width="38" x="443" y="232" /><rect fill="#1e88e5" height="14" opacity="0.25" width="71" x="112" y="4" /><rect fill="#43a047" height="29" opacity="0.25" width="58" x="153" y="267" /><rect fill="#43a047" height="35" opacity="0.25" width="35" x="166" y="155" /><rect fill="#e53935" height="11" opacity="0.25" width="69" x="301" y="7" /><circle cx="126" cy="27" fill="#1e88e5" opacity="0.25" r="25" /><rect fill="#e53935" height="11" opacity="0.25" width="40" x="440" y="180" /><rect fill="#e53935" height="27" opacity="0.25" width="72" x="358" y="145" /><circle cx="277" cy="73" fill="#e53935" opacity="0.25" r="16" /><rect fill="#43a047" height="11" opacity="0.25" width="54" x="82" y="148" /><rect fill="#1e88e5" height="22" opacity="0.25" width="80" x="254" y="347" /><rect fill="#1e88e5" height="29" opacity="0.25" width="59" x="100" y="133" /><rect fill="#e53935" height="28" opacity="0.25" width="60" x="577" y="223" /><circle cx="204" cy="128" fill="#43a047" opacity="0.25" r="14" /><rect fill="#43a047" height="12" opacity="0.25" width="59" x="204" y="154" /><rect fill="#43a047" height="22" opacity="0.25" width="51" x="472" y="279" /><rect fill="#e53935" height="20" opacity="0.25" width="68" x="141" y="269" /><rect fill="#43a047" height="31" opacity="0.25" width="31" x="366" y="239" /><rect fill="#1e88e5" height="10" opacity="0.25" width="69" x="430" y="210" /><rect fill="#e53935" height="24" opacity="0.25" width="24" x="431" y="45" /><rect fill="#1e88e5" height="36" opacity="0.25" width="36" x="248" y="297" /><rect fill="#e53935" filter="url(#blur)" height="40" width="40" x="175" y="125" /><text fill="white" font-size="28px" font-weight="bold" text-anchor="middle" x="195.0" y="151.66666666666666">H</text><rect fill="#e53935" filter="url(#blur)" height="40" width="40" x="225" y="125" /><text fill="white" font-size="28px" font-weight="bold" text-anchor="middle" x="245.0" y="151.66666666666666">A</text><rect fill="#e53935" filter="url(#blur)" height="40" width="40" x="275" y="125" /><text fill="white" font-size="28px" font-weight="bold" text-anchor="middle" x="295.0" y="151.66666666666666">P</text><rect fill="#e53935" filter="url(#blur)" height="40" width="40" x="325" y="125" /><text fill="white" font-size="28px" font-weight="bold" text-anchor="middle" x="345.0" y="151.66666666666666">P</text><rect fill="#e53935" filter="url(#blur)" height="40" width="40" x="375" y="125" /><text fill="white" font-size="28px" font-weight="bold" text-anchor="middle" x="395.0" y="151.66666666666666">Y</text><rect fill="#1e88e5" filter="url(#blur)" height="40" width="40" x="225" y="175" /><text fill="white" font-size="28px" font-weight="bold" text-anchor="middle" x="245.0" y="201.66666666666666">N</text><rect fill="#1e88e5" filter="url(#blur)" height="40" width="40" x="275" y="175" /><text fill="white" font-size="28px" font-weight="bold" text-anchor="middle" x="295.0" y="201.66666666666666">E</text><rect fill="#1e88e5" filter="url(#blur)" height="40" width="40" x="325" y="175" /><text fill="white" font-size="28px" font-weight="bold" text-anchor="middle" x="345.0" y="201.66666666666666">W</text><rect fill="#43a047" filter="url(#blur)" height="40" width="40" x="200" y="225" /><text fill="white" font-size="28px" font-weight="bold" text-anchor="middle" x="220.0" y="251.66666666666666">Y</text><rect fill="#43a047" filter="url(#blur)" height="40" width="40" x="250" y="225" /><text fill="white" font-size="28px" font-weight="bold" text-anchor="middle" x="270.0" y="251.66666666666666">E</text><rect fill="#43a047" filter="url(#blur)" height="40" width="40" x="300" y="225" /><text fill="white" font-size="28px" font-weight="bold" text-anchor="middle" x="320.0" y="251.66666666666666">A</text><rect fill="#43a047" filter="url(#blur)" height="40" width="40" x="350" y="225" /><text fill="white" font-size="28px" font-weight="bold" text-anchor="middle" x="370.0" y="251.66666666666666">R</text></svg>