<?xml version="1.0" encoding="utf-8" ?>
<svg baseProfile="full" height="600" version="1.1" width="600" xmlns="http://www.w3.org/2000/svg" xmlns:ev="http://www.w3.org/2001/xml-events" xmlns:xlink="http://www.w3.org/1999/xlink"><defs><linearGradient id="grad" x1="0" x2="1" y1="0" y2="1"><stop offset="0%" stop-color="#fbc02d" stop-opacity="0.15" /><stop offset="50%" stop-color="#1e88e5" stop-opacity="0.15" /><stop offset="100%" stop-color="#43a047" stop-opacity="0.15" /></linearGradient><filter id="blur"><feGaussianBlur in="SourceGraphic" stdDeviation="2" /></filter></defs><rect fill="url(#grad)" height="600" width="600" x="0" y="0" /><circle cx="288" cy="31" fill="#1e88e5" opacity="0.25" r="8" /><rect fill="#1e88e5" height="32" opacity="0.25" width="32" x="403" y="325" /><rect fill="#e53935" height="13" opacity="0.25" width="27" x="390" y="445" /><rect fill="#e53935" height="14" opacity="0.25" width="14" x="177" y="486" /><rect fill="#1e88e5" height="36" opacity="0.25" width="36" x="393" y="368" /><circle cx="295" cy="128" fill="#e53935" opacity="0.25" r="7" /><circle cx="16" cy="147" fill="#1e88e5" opacity="0.25" r="16" /><rect fill="#e53935" height="12" opacity="0.25" width="12" x="447" y="139" /><rect fill="#43a047" height="38" opacity="0.25" width="38" x="425" y="466" /><rect fill="#43a047" height="24" opacity="0.25" width="24" x="435" y="184" /><rect fill="#1e88e5" height="11" opacity="0.25" width="22" x="565" y="460" /><circle cx="190" cy="434" fill="#e53935" opacity="0.25" r="14" /><rect fill="#43a047" height="32" opacity="0.25" width="32" x="510" y="242" /><rect fill="#1e88e5" height="14" opacity="0.25" width="28" x="420" y="559" /><circle cx="38" cy="581" fill="#43a047" opacity="0.25" r="12" /><rect fill="#43a047" height="12" opacity="0.25" width="25" x="115" y="594" /><circle cx="145" cy="539" fill="#1e88e5" opacity="0.25" r="18" /><rect fill="#43a047" height="13" opacity="0.25" width="26" x="529" y="80" /><circle cx="251" cy="483" fill="#43a047" opacity="0.25" r="15" /><rect fill="#43a047" height="35" opacity="0.25" width="35" x="79" y="552" /><rect fill="#e53935" height="13" opacity="0.25" width="27" x="54" y="351" /><rect fill="#1e88e5" height="19" opacity="0.25" width="38" x="464" y="524" /><rect fill="#1e88e5" height="21" opacity="0.25" width="21" x="339" y="431" /><rect fill="#43a047" height="16" opacity="0.25" width="32" x="171" y="36" /><rect fill="#e53935" height="18" opacity="0.25" width="18" x="311" y="577" /><rect fill="#43a047" height="15" opacity="0.25" width="15" x="484" y="592" /><circle cx="298" cy="27" fill="#1e88e5" opacity="0.25" r="9" /><circle cx="129" cy="517" fill="#1e88e5" opacity="0.25" r="6" /><rect fill="#1e88e5" height="9" opacity="0.25" width="18" x="135" y="287" /><circle cx="114" cy="178" fill="#43a047" opacity="0.25" r="19" /><rect fill="#e53935" height="21" opacity="0.25" width="21" x="154" y="457" /><rect fill="#43a047" height="7" opacity="0.25" width="15" x="241" y="496" /><circle cx="351" cy="86" fill="#e53935" opacity="0.25" r="20" /><rect fill="#1e88e5" height="34" opacity="0.25" width="34" x="157" y="507" /><rect fill="#43a047" height="16" opacity="0.25" width="33" x="243" y="450" /><circle cx="215" cy="591" fill="#1e88e5" opacity="0.25" r="16" /><circle cx="270" cy="118" fill="#e53935" opacity="0.25" r="5" /><rect fill="#1e88e5" height="9" opacity="0.25" width="19" x="408" y="487" /><rect fill="#43a047" height="22" opacity="0.25" width="22" x="545" y="239" /><rect fill="#e53935" height="18" opacity="0.25" width="18" x="399" y="485" /><rect fill="#1e88e5" height="19" opacity="0.25" width="19" x="445" y="12" /><rect fill="#e53935" height="15" opacity="0.25" width="31" x="323" y="542" /><circle cx="544" cy="362" fill="#1e88e5" opacity="0.25" r="20" /><rect fill="#1e88e5" height="18" opacity="0.25" width="18" x="279" y="343" /><circle cx="261" cy="598" fill="#1e88e5" opacity="0.25" r="11" /><rect fill="#1e88e5" height="26" opacity="0.25" width="26" x="247" y="199" /><rect fill="#e53935" height="27" opacity="0.25" width="27" x="184" y="320" /><rect fill="#1e88e5" height="10" opacity="0.25" width="10" x="8" y="69" /><circle cx="537" cy="106" fill="#1e88e5" opacity="0.25" r="15" /><rect fill="#e53935" height="9" opacity="0.25" width="18" x="224" y="290" /><circle cx="24" cy="94" fill="#43a047" opacity="0.25" r="5" /><rect fill="#e53935" height="32" opacity="0.25" width="32" x="222" y="124" /><circle cx="133" cy="384" fill="#43a047" opacity="0.25" r="15" /><rect fill="#e53935" height="32" opacity="0.25" width="32" x="189" y="113" /><rect fill="#e53935" height="15" opacity="0.25" width="31" x="301" y="478" /><rect fill="#1e88e5" height="34" opacity="0.25" width="34" x="464" y="283" /><rect fill="#e53935" height="15" opacity="0.25" width="15" x="331" y="263" /><rect fill="#1e88e5" height="11" opacity="0.25" width="22" x="63" y="391" /><circle cx="264" cy="271" fill="#1e88e5" opacity="0.25" r="7" /><circle cx="503" cy="205" fill="#1e88e5" opacity="0.25" r="14" /><circle cx="503" cy="111" fill="#43a047" opacity="0.25" r="7" /><rect fill="#1e88e5" height="19" opacity="0.25" width="39" x="223" y="108" /><rect fill="#e53935" height="11" opacity="0.25" width="11" x="265" y="105" /><circle cx="585" cy="256" fill="#1e88e5" opacity="0.25" r="17" /><circle cx="509" cy="152" fill="#43a047" opacity="0.25" r="15" /><circle cx="38" cy="399" fill="#e53935" opacity="0.25" r="9" /><rect fill="#e53935" height="28" opacity="0.25" width="28" x="337" y="400" /><rect fill="#1e88e5" height="23" opacity="0.25" width="23" x="502" y="489" /><rect fill="#e53935" height="17" opacity="0.25" width="17" x="71" y="553" /><rect fill="#43a047" height="14" opacity="0.25" width="28" x="493" y="124" /><rect fill="#e53935" height="11" opacity="0.25" width="22" x="341" y="310" /><rect fill="#1e88e5" height="27" opacity="0.25" width="27" x="92" y="374" /><circle cx="470" cy="296" fill="#e53935" opacity="0.25" r="15" /><circle cx="567" cy="40" fill="#1e88e5" opacity="0.25" r="20" /><rect fill="#1e88e5" height="32" opacity="0.25" width="32" x="195" y="306" /><circle cx="367" cy="498" fill="#43a047" opacity="0.25" r="6" /><rect fill="#e53935" height="5" opacity="0.25" width="11" x="194" y="143" /><circle cx="244" cy="500" fill="#e53935" opacity="0.25" r="11" /><rect fill="#1e88e5" height="27" opacity="0.25" width="27" x="315" y="511" /><circle cx="37" cy="347" fill="#1e88e5" opacity="0.25" r="5" /><rect fill="#e53935" height="13" opacity="0.25" width="13" x="43" y="415" /><rect fill="#43a047" height="40" opacity="0.25" width="40" x="535" y="469" /><rect fill="#e53935" height="17" opacity="0.25" width="17" x="152" y="593" /><circle cx="144" cy="500" fill="#e53935" opacity="0.25" r="15" /><rect fill="#43a047" height="16" opacity="0.25" width="32" x="46" y="248" /><circle cx="14" cy="176" fill="#e53935" opacity="0.25" r="15" /><rect fill="#e53935" height="14" opacity="0.25" width="29" x="99" y="467" /><rect fill="#1e88e5" height="13" opacity="0.25" width="13" x="65" y="108" /><rect fill="#e53935" height="35" opacity="0.25" width="35" x="225" y="64" /><rect fill="#e53935" height="10" opacity="0.25" width="20" x="345" y="411" /><rect fill="#1e88e5" height="14" opacity="0.25" width="14" x="589" y="558" /><circle cx="46" cy="177" fill="#e53935" opacity="0.25" r="10" /><circle cx="280" cy="144" fill="#1e88e5" opacity="0.25" r="17" /><circle cx="378" cy="566" fill="#1e88e5" opacity="0.25" r="7" /><circle cx="595" cy="41" fill="#e53935" opacity="0.25" r="7" /><rect fill="#1e88e5" height="10" opacity="0.25" width="10" x="385" y="161" /><circle cx="6" cy="7" fill="#e53935" opacity="0.25" r="7" /><rect fill="#1e88e5" height="32" opacity="0.25" width="32" x="290" y="426" /><rect fill="#43a047" height="14" opacity="0.25" width="14" x="129" y="211" /><rect fill="#e53935" height="11" opacity="0.25" width="23" x="535" y="461" /><circle cx="38" cy="184" fill="#1e88e5" opacity="0.25" r="16" /><rect fill="#1e88e5" height="21" opacity="0.25" width="21" x="90" y="308" /><circle cx="571" cy="241" fill="#e53935" opacity="0.25" r="8" /><rect fill="#43a047" height="37" opacity="0.25" width="37" x="97" y="370" /><rect fill="#43a047" height="34" opacity="0.25" width="34" x="224" y="475" /><rect fill="#e53935" height="11" opacity="0.25" width="11" x="213" y="283" /><circle cx="152" cy="485" fill="#e53935" opacity="0.25" r="12" /><circle cx="44" cy="55" fill="#1e88e5" opacity="0.25" r="15" /><rect fill="#1e88e5" height="9" opacity="0.25" width="18" x="214" y="445" /><rect fill="#43a047" height="13" opacity="0.25" width="13" x="464" y="44" /><circle cx="550" cy="180" fill="#e53935" opacity="0.25" r="7" /><rect fill="#e53935" height="6" opacity="0.25" width="12" x="527" y="118" /><rect fill="#1e88e5" height="20" opacity="0.25" width="20" x="455" y="593" /><circle cx="333" cy="235" fill="#e53935" opacity="0.25" r="17" /><rect fill="#43a047" height="8" opacity="0.25" width="17" x="233" y="100" /><rect fill="#e53935" height="19" opacity="0.25" width="38" x="204" y="384" /><circle cx="482" cy="599" fill="#e53935" opacity="0.25" r="12" /><rect fill="#43a047" height="19" opacity="0.25" width="39" x="148" y="221" /><rect fill="#e53935" height="10" opacity="0.25" width="21" x="182" y="396" /><rect fill="#e53935" height="9" opacity="0.25" width="18" x="198" y="367" /><rect fill="#43a047" height="16" opacity="0.25" width="32" x="130" y="32" /><circle cx="287" cy="139" fill="#1e88e5" opacity="0.25" r="6" /><rect fill="#1e88e5" height="17" opacity="0.25" width="34" x="428" y="175" /><circle cx="302" cy="160" fill="#43a047" opacity="0.25" r="17" /><rect fill="#e53935" height="27" opacity="0.25" width="27" x="174" y="591" /><circle cx="421" cy="534" fill="#e53935" opacity="0.25" r="12" /><rect fill="#e53935" height="18" opacity="0.25" width="18" x="484" y="473" /><rect fill="#1e88e5" height="17" opacity="0.25" width="17" x="438" y="252" /><rect fill="#43a047" height="19" opacity="0.25" width="38" x="593" y="227" /><circle cx="587" cy="5" fill="#e53935" opacity="0.25" r="11" /><circle cx="481" cy="516" fill="#1e88e5" opacity="0.25" r="5" /><rect fill="#43a047" height="35" opacity="0.25" width="35" x="403" y="490" /><circle cx="463" cy="507" fill="#e53935" opacity="0.25" r="8" /><rect fill="#e53935" height="40" opacity="0.25" width="40" x="12" y="416" /><circle cx="367" cy="302" fill="#43a047" opacity="0.25" r="8" /><circle cx="16" cy="491" fill="#1e88e5" opacity="0.25" r="15" /><circle cx="470" cy="584" fill="#43a047" opacity="0.25" r="16" /><circle cx="465" cy="474" fill="#e53935" opacity="0.25" r="17" /><rect fill="#1e88e5" height="35" opacity="0.25" width="35" x="415" y="189" /><rect fill="#43a047" height="37" opacity="0.25" width="37" x="475" y="1" /><circle cx="394" cy="340" fill="#e53935" opacity="0.25" r="13" /><rect fill="#43a047" height="16" opacity="0.25" width="32" x="436" y="276" /><rect fill="#43a047" height="35" opacity="0.25" width="35" x="589" y="212" /><circle cx="343" cy="56" fill="#43a047" opacity="0.25" r="13" /><rect fill="#1e88e5" height="11" opacity="0.25" width="22" x="52" y="113" /><rect fill="#e53935" height="10" opacity="0.25" width="21" x="41" y="374" /><rect fill="#43a047" height="27" opacity="0.25" width="27" x="572" y="68" /><circle cx="141" cy="342" fill="#43a047" opacity="0.25" r="8" /><circle cx="489" cy="594" fill="#43a047" opacity="0.25" r="18" /><circle cx="230" cy="328" fill="#1e88e5" opacity="0.25" r="10" /><rect fill="#e53935" height="11" opacity="0.25" width="11" x="433" y="283" /><rect fill="#43a047" height="12" opacity="0.25" width="25" x="353" y="463" /><rect fill="#43a047" height="32" opacity="0.25" width="32" x="125" y="481" /><rect fill="#43a047" height="24" opacity="0.25" width="24" x="545" y="299" /><rect fill="#1e88e5" height="19" opacity="0.25" width="38" x="67" y="192" /><circle cx="82" cy="400" fill="#e53935" opacity="0.25" r="19" /><rect fill="#1e88e5" height="7" opacity="0.25" width="15" x="78" y="111" /><circle cx="151" cy="508" fill="#e53935" opacity="0.25" r="7" /><rect fill="#43a047" height="23" opacity="0.25" width="23" x="23" y="300" /><rect fill="#1e88e5" height="21" opacity="0.25" width="21" x="135" y="485" /><rect fill="#e53935" height="8" opacity="0.25" width="16" x="21" y="298" /><circle cx="237" cy="532" fill="#1e88e5" opacity="0.25" r="15" /><rect fill="#43a047" height="15" opacity="0.25" width="30" x="592" y="351" /><rect fill="#43a047" height="18" opacity="0.25" width="36" x="497" y="542" /><rect fill="#e53935" height="14" opacity="0.25" width="28" x="468" y="311" /><rect fill="#1e88e5" height="8" opacity="0.25" width="17" x="175" y="266" /><rect fill="#1e88e5" height="7" opacity="0.25" width="14" x="295" y="48" /><rect fill="#e53935" height="14" opacity="0.25" width="29" x="466" y="170" /><rect fill="#e53935" height="15" opacity="0.25" width="15" x="548" y="292" /><rect fill="#e53935" height="17" opacity="0.25" width="17" x="157" y="165" /><circle cx="324" cy="588" fill="#1e88e5" opacity="0.25" r="7" /><rect fill="#43a047" height="8" opacity="0.25" width="16" x="378" y="188" /><rect fill="#e53935" height="21" opacity="0.25" width="21" x="35" y="324" /><rect fill="#43a047" height="7" opacity="0.25" width="15" x="459" y="552" /><rect fill="#1e88e5" height="11" opacity="0.25" width="22" x="124" y="25" /><circle cx="469" cy="327" fill="#e53935" opacity="0.25" r="7" /><rect fill="#43a047" height="20" opacity="0.25" width="20" x="559" y="519" /><rect fill="#1e88e5" height="38" opacity="0.25" width="38" x="302" y="485" /><rect fill="#1e88e5" height="33" opacity="0.25" width="33" x="150" y="578" /><rect fill="#e53935" height="19" opacity="0.25" width="38" x="115" y="490" /><circle cx="564" cy="119" fill="#e53935" opacity="0.25" r="9" /><rect fill="#e53935" height="10" opacity="0.25" width="21" x="225" y="456" /><rect fill="#43a047" height="14" opacity="0.25" width="28" x="56" y="199" /><circle cx="284" cy="200" fill="#e53935" opacity="0.25" r="5" /><rect fill="#1e88e5" height="26" opacity="0.25" width="26" x="456" y="89" /><circle cx="502" cy="325" fill="#43a047" opacity="0.25" r="14" /><rect fill="#e53935" height="22" opacity="0.25" width="22" x="57" y="369" /><rect fill="#1e88e5" height="22" opacity="0.25" width="22" x="437" y="378" /><circle cx="291" cy="353" fill="#1e88e5" opacity="0.25" r="10" /><rect fill="#43a047" height="8" opacity="0.25" width="16" x="574" y="89" /><rect fill="#e53935" height="9" opacity="0.25" width="19" x="425" y="453" /><rect fill="#43a047" height="14" opacity="0.25" width="14" x="434" y="424" /><rect fill="#1e88e5" height="16" opacity="0.25" width="16" x="88" y="147" /><rect fill="#43a047" height="6" opacity="0.25" width="12" x="537" y="343" /><rect fill="#43a047" height="11" opacity="0.25" width="23" x="90" y="6" /><rect fill="#1e88e5" height="13" opacity="0.25" width="27" x="424" y="179" /><rect fill="#e53935" height="16" opacity="0.25" width="16" x="581" y="140" /><rect fill="#e53935" height="12" opacity="0.25" width="25" x="296" y="567" /><rect fill="#43a047" height="12" opacity="0.25" width="25" x="599" y="311" /><rect fill="#e53935" height="10" opacity="0.25" width="10" x="474" y="229" /><circle cx="268" cy="307" fill="#43a047" opacity="0.25" r="20" /><rect fill="#43a047" height="30" opacity="0.25" width="30" x="483" y="127" /><rect fill="#43a047" height="12" opacity="0.25" width="25" x="427" y="183" /><rect fill="#1e88e5" height="13" opacity="0.25" width="13" x="250" y="29" /><rect fill="#1e88e5" height="14" opacity="0.25" width="28" x="68" y="370" /><rect fill="#43a047" height="30" opacity="0.25" width="30" x="446" y="264" /><rect fill="#43a047" height="13" opacity="0.25" width="26" x="122" y="382" /><rect fill="#43a047" height="15" opacity="0.25" width="15" x="17" y="265" /><circle cx="149" cy="327" fill="#43a047" opacity="0.25" r="12" /><circle cx="365" cy="167" fill="#1e88e5" opacity="0.25" r="5" /><rect fill="#1e88e5" height="5" opacity="0.25" width="11" x="429" y="364" /><rect fill="#e53935" height="13" opacity="0.25" width="26" x="542" y="78" /><rect fill="#e53935" height="29" opacity="0.25" width="29" x="187" y="96" /><rect fill="#43a047" height="36" opacity="0.25" width="36" x="330" y="323" /><rect fill="#43a047" height="6" opacity="0.25" width="13" x="277" y="371" /><rect fill="#e53935" height="10" opacity="0.25" width="10" x="360" y="147" /><rect fill="#1e88e5" height="34" opacity="0.25" width="34" x="288" y="381" /><rect fill="#e53935" height="6" opacity="0.25" width="13" x="348" y="166" /><circle cx="515" cy="226" fill="#e53935" opacity="0.25" r="18" /><rect fill="#43a047" height="32" opacity="0.25" width="32" x="538" y="544" /><rect fill="#e53935" height="24" opacity="0.25" width="24" x="116" y="427" /><circle cx="134" cy="17" fill="#1e88e5" opacity="0.25" r="12" /><rect fill="#1e88e5" height="18" opacity="0.25" width="36" x="371" y="142" /><rect fill="#43a047" height="15" opacity="0.25" width="15" x="535" y="350" /><rect fill="#e53935" height="8" opacity="0.25" width="17" x="29" y="121" /><rect fill="#e53935" height="19" opacity="0.25" width="19" x="145" y="232" /><circle cx="133" cy="80" fill="#43a047" opacity="0.25" r="11" /><circle cx="79" cy="19" fill="#1e88e5" opacity="0.25" r="17" /><rect fill="#e53935" height="6" opacity="0.25" width="13" x="43" y="201" /><rect fill="#e53935" height="25" opacity="0.25" width="25" x="525" y="60" /><rect fill="#43a047" height="9" opacity="0.25" width="19" x="44" y="67" /><circle cx="98" cy="126" fill="#43a047" opacity="0.25" r="19" /><circle cx="204" cy="189" fill="#1e88e5" opacity="0.25" r="15" /><circle cx="92" cy="149" fill="#43a047" opacity="0.25" r="18" /><rect fill="#e53935" height="10" opacity="0.25" width="21" x="593" y="356" /><rect fill="#e53935" height="28" opacity="0.25" width="28" x="247" y="517" /><circle cx="592" cy="14" fill="#e53935" opacity="0.25" r="13" /><rect fill="#43a047" height="15" opacity="0.25" width="15" x="196" y="288" /><circle cx="101" cy="219" fill="#43a047" opacity="0.25" r="19" /><rect fill="#43a047" height="32" opacity="0.25" width="32" x="486" y="375" /><circle cx="450" cy="109" fill="#1e88e5" opacity="0.25" r="7" /><rect fill="#e53935" height="13" opacity="0.25" width="26" x="434" y="219" /><rect fill="#1e88e5" height="6" opacity="0.25" width="13" x="115" y="321" /><circle cx="532" cy="139" fill="#1e88e5" opacity="0.25" r="12" /><rect fill="#e53935" height="33" opacity="0.25" width="33" x="295" y="570" /><circle cx="335" cy="505" fill="#1e88e5" opacity="0.25" r="6" /><rect fill="#1e88e5" height="15" opacity="0.25" width="31" x="467" y="319" /><circle cx="567" cy="417" fill="#1e88e5" opacity="0.25" r="9" /><circle cx="71" cy="487" fill="#43a047" opacity="0.25" r="20" /><rect fill="#1e88e5" height="15" opacity="0.25" width="31" x="183" y="13" /><rect fill="#43a047" height="24" opacity="0.25" width="24" x="107" y="405" /><rect fill="#1e88e5" height="14" opacity="0.25" width="14" x="87" y="122" /><rect fill="#1e88e5" height="6" opacity="0.25" width="12" x="104" y="172" /><circle cx="346" cy="205" fill="#1e88e5" opacity="0.25" r="14" /><circle cx="238" cy="434" fill="#1e88e5" opacity="0.25" r="16" /><rect fill="#43a047" height="17" opacity="0.25" width="34" x="595" y="279" /><rect fill="#43a047" height="15" opacity="0.25" width="31" x="364" y="487" /><rect fill="#e53935" height="9" opacity="0.25" width="18" x="496" y="523" /><rect fill="#1e88e5" height="9" opacity="0.25" width="18" x="110" y="125" /><rect fill="#e53935" height="5" opacity="0.25" width="10" x="236" y="137" /><rect fill="#43a047" height="25" opacity="0.25" width="25" x="54" y="69" /><circle cx="183" cy="391" fill="#43a047" opacity="0.25" r="14" /><rect fill="#43a047" height="14" opacity="0.25" width="29" x="156" y="310" /><circle cx="78" cy="532" fill="#1e88e5" opacity="0.25" r="17" /><rect fill="#1e88e5" height="15" opacity="0.25" width="31" x="206" y="300" /><rect fill="#1e88e5" height="13" opacity="0.25" width="27" x="516" y="267" /><rect fill="#e53935" height="40" opacity="0.25" width="40" x="559" y="18" /><rect fill="#1e88e5" height="12" opacity="0.25" width="24" x="121" y="392" /><rect fill="#e53935" height="5" opacity="0.25" width="11" x="453" y="470" /><circle cx="570" cy="310" fill="#43a047" opacity="0.25" r="19" /><circle cx="503" cy="441" fill="#1e88e5" opacity="0.25" r="7" /><rect fill="#e53935" height="34" opacity="0.25" width="34" x="398" y="499" /><rect fill="#43a047" height="31" opacity="0.25" width="31" x="502" y="567" /><rect fill="#e53935" height="27" opacity="0.25" width="27" x="481" y="487" /><rect fill="#1e88e5" height="18" opacity="0.25" width="18" x="57" y="400" /><rect fill="#1e88e5" height="34" opacity="0.25" width="34" x="386" y="361" /><rect fill="#e53935" height="14" opacity="0.25" width="28" x="62" y="28" /><circle cx="375" cy="357" fill="#43a047" opacity="0.25" r="17" /><rect fill="#e53935" height="22" opacity="0.25" width="22" x="27" y="349" /><rect fill="#1e88e5" height="11" opacity="0.25" width="23" x="353" y="365" /><circle cx="250" cy="253" fill="#43a047" opacity="0.25" r="8" /><rect fill="#1e88e5" height="18" opacity="0.25" width="37" x="86" y="67" /><circle cx="345" cy="173" fill="#43a047" opacity="0.25" r="5" /><rect fill="#1e88e5" height="15" opacity="0.25" width="31" x="38" y="471" /><rect fill="#e53935" height="18" opacity="0.25" width="18" x="527" y="431" /><rect fill="#1e88e5" height="20" opacity="0.25" width="20" x="480" y="22" /><rect fill="#e53935" height="28" opacity="0.25" width="28" x="399" y="330" /><rect fill="#1e88e5" height="10" opacity="0.25" width="20" x="102" y="210" /><rect fill="#1e88e5" height="29" opacity="0.25" width="29" x="347" y="170" /><rect fill="#43a047" height="12" opacity="0.25" width="25" x="446" y="206" /><circle cx="548" cy="219" fill="#1e88e5" opacity="0.25" r="9" /><circle cx="304" cy="587" fill="#e53935" opacity="0.25" r="11" /><rect fill="#43a047" height="13" opacity="0.25" width="13" x="94" y="592" /><rect fill="#43a047" height="14" opacity="0.25" width="28" x="279" y="68" /><rect fill="#e53935" height="10" opacity="0.25" width="21" x="437" y="214" /><rect fill="#1e88e5" height="35" opacity="0.25" width="35" x="309" y="516" /><rect fill="#1e88e5" height="8" opacity="0.25" width="16" x="552" y="320" /><rect fill="#43a047" height="12" opacity="0.25" width="24" x="257" y="527" /><rect fill="#43a047" height="30" opacity="0.25" width="30" x="184" y="19" /><rect fill="#e53935" height="25" opacity="0.25" width="25" x="191" y="590" /><rect fill="#e53935" filter="url(#blur)" height="60" width="60" x="125" y="195" /><text alignment-baseline="middle" fill="#ffffff" font-family="Arial" font-size="20px" text-anchor="middle" x="155.0" y="235.0">H</text><rect fill="#e53935" filter="url(#blur)" height="60" width="60" x="195" y="195" /><text alignment-baseline="middle" fill="#ffffff" font-family="Arial" font-size="20px" text-anchor="middle" x="225.0" y="235.0">A</text><rect fill="#e53935" filter="url(#blur)" height="60" width="60" x="265" y="195" /><text alignment-baseline="middle" fill="#ffffff" font-family="Arial" font-size="20px" text-anchor="middle" x="295.0" y="235.0">P</text><rect fill="#e53935" filter="url(#blur)" height="60" width="60" x="335" y="195" /><text alignment-baseline="middle" fill="#ffffff" font-family="Arial" font-size="20px" text-anchor="middle" x="365.0" y="235.0">P</text><rect fill="#e53935" filter="url(#blur)" height="60" width="60" x="405" y="195" /><text alignment-baseline="middle" fill="#ffffff" font-family="Arial" font-size="20px" text-anchor="middle" x="435.0" y="235.0">Y</text><rect fill="#1e88e5" filter="url(#blur)" height="60" width="60" x="55" y="265" /><text alignment-baseline="middle" fill="#ffffff" font-family="Arial" font-size="20px" text-anchor="middle" x="85.0" y="305.0">M</text><rect fill="#1e88e5" filter="url(#blur)" height="60" width="60" x="125" y="265" /><text alignment-baseline="middle" fill="#ffffff" font-family="Arial" font-size="20px" text-anchor="middle" x="155.0" y="305.0">O</text><rect fill="#1e88e5" filter="url(#blur)" height="60" width="60" x="195" y="265" /><text alignment-baseline="middle" fill="#ffffff" font-family="Arial" font-size="20px" text-anchor="middle" x="225.0" y="305.0">T</text><rect fill="#1e88e5" filter="url(#blur)" height="60" width="60" x="265" y="265" /><text alignment-baseline="middle" fill="#ffffff" font-family="Arial" font-size="20px" text-anchor="middle" x="295.0" y="305.0">H</text><rect fill="#1e88e5" filter="url(#blur)" height="60" width="60" x="405" y="265" /><g transform="translate(415,275)"><path d="M15,30 C20,10 40,10 45,30 M20,35 Q30,50 40,35M28,30 A5,5 0 1,1 32,30" fill="none" stroke="#ffffff" stroke-width="2" /></g><rect fill="#1e88e5" filter="url(#blur)" height="60" width="60" x="405" y="265" /><text alignment-baseline="middle" fill="#ffffff" font-family="Arial" font-size="20px" text-anchor="middle" x="435.0" y="305.0">R</text><rect fill="#1e88e5" filter="url(#blur)" height="60" width="60" x="475" y="265" /><text alignment-baseline="middle" fill="#ffffff" font-family="Arial" font-size="20px" text-anchor="middle" x="505.0" y="305.0">S</text><rect fill="#43a047" filter="url(#blur)" height="60" width="60" x="160" y="335" /><text alignment-baseline="middle" fill="#ffffff" font-family="Arial" font-size="20px" text-anchor="middle" x="190.0" y="375.0">D</text><rect fill="#43a047" filter="url(#blur)" height="60" width="60" x="230" y="335" /><text alignment-baseline="middle" fill="#ffffff" font-family="Arial" font-size="20px" text-anchor="middle" x="260.0" y="375.0">A</text><rect fill="#43a047" filter="url(#blur)" height="60" width="60" x="300" y="335" /><text alignment-baseline="middle" fill="#ffffff" font-family="Arial" font-size="20px" text-anchor="middle" x="330.0" y="375.0">Y</text><rect fill="#43a047" filter="url(#blur)" height="60" width="60" x="370" y="335" /><text alignment-baseline="middle" fill="#ffffff" font-family="Arial" font-size="20px" text-anchor="middle" x="400.0" y="375.0">!</text></svg>