<?xml version="1.0" encoding="utf-8" ?>
<svg baseProfile="full" height="400px" version="1.1" width="600px" xmlns="http://www.w3.org/2000/svg" xmlns:ev="http://www.w3.org/2001/xml-events" xmlns:xlink="http://www.w3.org/1999/xlink"><defs><linearGradient id="grad" x1="0" x2="1" y1="0" y2="1"><stop offset="0" stop-color="#ffe6f0" stop-opacity="0.15" /><stop offset="1" stop-color="#e0f7fa" stop-opacity="0.15" /></linearGradient><filter id="blur"><feGaussianBlur in="SourceGraphic" stdDeviation="2" /></filter></defs><rect fill="url(#grad)" height="100%" width="100%" x="0" y="0" /><circle cx="515" cy="300" fill="#a5d6a7" opacity="0.15" r="10" /><circle cx="21" cy="315" fill="#f48fb1" opacity="0.15" r="19" /><circle cx="438" cy="387" fill="#f48fb1" opacity="0.15" r="29" /><circle cx="61" cy="70" fill="#81d4fa" opacity="0.15" r="25" /><rect fill="#81d4fa" height="40" opacity="0.15" width="26" x="206" y="77" /><circle cx="243" cy="371" fill="#a5d6a7" opacity="0.15" r="24" /><rect fill="#81d4fa" height="45" opacity="0.15" width="40" x="137" y="142" /><circle cx="533" cy="212" fill="#a5d6a7" opacity="0.15" r="19" /><circle cx="234" cy="375" fill="#81d4fa" opacity="0.15" r="20" /><circle cx="210" cy="276" fill="#f48fb1" opacity="0.15" r="17" /><circle cx="390" cy="266" fill="#81d4fa" opacity="0.15" r="15" /><rect fill="#81d4fa" height="50" opacity="0.15" width="22" x="6" y="33" /><circle cx="53" cy="324" fill="#f48fb1" opacity="0.15" r="16" /><circle cx="93" cy="88" fill="#a5d6a7" opacity="0.15" r="27" /><circle cx="241" cy="259" fill="#f48fb1" opacity="0.15" r="23" /><rect fill="#a5d6a7" height="27" opacity="0.15" width="26" x="318" y="84" /><rect fill="#f48fb1" height="29" opacity="0.15" width="29" x="180" y="310" /><rect fill="#81d4fa" height="50" opacity="0.15" width="22" x="206" y="139" /><rect fill="#f48fb1" height="34" opacity="0.15" width="35" x="407" y="193" /><rect fill="#a5d6a7" height="44" opacity="0.15" width="33" x="517" y="312" /><circle cx="493" cy="10" fill="#81d4fa" opacity="0.15" r="23" /><circle cx="307" cy="304" fill="#a5d6a7" opacity="0.15" r="14" /><circle cx="263" cy="194" fill="#81d4fa" opacity="0.15" r="19" /><rect fill="#a5d6a7" height="35" opacity="0.15" width="39" x="290" y="192" /><circle cx="341" cy="69" fill="#a5d6a7" opacity="0.15" r="25" /><circle cx="158" cy="97" fill="#f48fb1" opacity="0.15" r="10" /><rect fill="#81d4fa" height="32" opacity="0.15" width="50" x="503" y="207" /><rect fill="#81d4fa" height="38" opacity="0.15" width="40" x="393" y="250" /><circle cx="418" cy="19" fill="#f48fb1" opacity="0.15" r="22" /><circle cx="198" cy="390" fill="#81d4fa" opacity="0.15" r="18" /><rect fill="#81d4fa" height="42" opacity="0.15" width="40" x="521" y="363" /><rect fill="#81d4fa" height="33" opacity="0.15" width="49" x="59" y="333" /><circle cx="248" cy="244" fill="#f48fb1" opacity="0.15" r="21" /><circle cx="151" cy="133" fill="#a5d6a7" opacity="0.15" r="24" /><circle cx="260" cy="126" fill="#a5d6a7" opacity="0.15" r="28" /><circle cx="12" cy="59" fill="#f48fb1" opacity="0.15" r="30" /><rect fill="#a5d6a7" height="22" opacity="0.15" width="48" x="407" y="361" /><circle cx="433" cy="84" fill="#81d4fa" opacity="0.15" r="18" /><rect fill="#a5d6a7" height="32" opacity="0.15" width="48" x="512" y="272" /><rect fill="#a5d6a7" height="22" opacity="0.15" width="47" x="421" y="385" /><circle cx="586" cy="397" fill="#81d4fa" opacity="0.15" r="14" /><rect fill="#81d4fa" height="29" opacity="0.15" width="42" x="214" y="383" /><circle cx="172" cy="251" fill="#f48fb1" opacity="0.15" r="13" /><circle cx="427" cy="268" fill="#81d4fa" opacity="0.15" r="30" /><rect fill="#f48fb1" height="25" opacity="0.15" width="31" x="441" y="87" /><circle cx="202" cy="249" fill="#f48fb1" opacity="0.15" r="26" /><circle cx="461" cy="290" fill="#f48fb1" opacity="0.15" r="15" /><circle cx="60" cy="383" fill="#f48fb1" opacity="0.15" r="16" /><rect fill="#a5d6a7" height="39" opacity="0.15" width="49" x="418" y="225" /><circle cx="170" cy="40" fill="#81d4fa" opacity="0.15" r="12" /><rect fill="#f48fb1" height="20" opacity="0.15" width="30" x="127" y="141" /><circle cx="489" cy="248" fill="#a5d6a7" opacity="0.15" r="13" /><circle cx="62" cy="136" fill="#f48fb1" opacity="0.15" r="28" /><circle cx="99" cy="108" fill="#a5d6a7" opacity="0.15" r="10" /><rect fill="#81d4fa" height="35" opacity="0.15" width="49" x="532" y="389" /><rect fill="#81d4fa" height="31" opacity="0.15" width="30" x="345" y="309" /><rect fill="#81d4fa" height="32" opacity="0.15" width="41" x="322" y="122" /><rect fill="#81d4fa" height="23" opacity="0.15" width="45" x="58" y="182" /><circle cx="467" cy="357" fill="#81d4fa" opacity="0.15" r="14" /><circle cx="125" cy="271" fill="#81d4fa" opacity="0.15" r="17" /><rect fill="#a5d6a7" height="47" opacity="0.15" width="41" x="462" y="316" /><rect fill="#a5d6a7" height="20" opacity="0.15" width="26" x="527" y="211" /><rect fill="#81d4fa" height="21" opacity="0.15" width="47" x="17" y="324" /><rect fill="#a5d6a7" height="32" opacity="0.15" width="35" x="454" y="119" /><circle cx="356" cy="219" fill="#81d4fa" opacity="0.15" r="13" /><rect fill="#f48fb1" height="24" opacity="0.15" width="42" x="300" y="310" /><circle cx="130" cy="254" fill="#f48fb1" opacity="0.15" r="19" /><rect fill="#f48fb1" height="41" opacity="0.15" width="35" x="172" y="228" /><circle cx="249" cy="108" fill="#f48fb1" opacity="0.15" r="12" /><circle cx="445" cy="366" fill="#f48fb1" opacity="0.15" r="15" /><rect fill="#81d4fa" height="43" opacity="0.15" width="27" x="392" y="392" /><rect fill="#f48fb1" height="24" opacity="0.15" width="41" x="487" y="343" /><rect fill="#81d4fa" height="27" opacity="0.15" width="47" x="92" y="354" /><circle cx="351" cy="193" fill="#a5d6a7" opacity="0.15" r="22" /><rect fill="#81d4fa" height="29" opacity="0.15" width="23" x="238" y="114" /><circle cx="114" cy="45" fill="#81d4fa" opacity="0.15" r="28" /><circle cx="118" cy="293" fill="#81d4fa" opacity="0.15" r="14" /><rect fill="#a5d6a7" height="29" opacity="0.15" width="20" x="389" y="295" /><circle cx="548" cy="97" fill="#81d4fa" opacity="0.15" r="23" /><rect fill="#f48fb1" height="41" opacity="0.15" width="36" x="373" y="347" /><circle cx="109" cy="202" fill="#f48fb1" opacity="0.15" r="27" /><rect fill="#81d4fa" height="27" opacity="0.15" width="46" x="323" y="74" /><rect fill="#a5d6a7" height="24" opacity="0.15" width="29" x="466" y="75" /><circle cx="327" cy="158" fill="#a5d6a7" opacity="0.15" r="13" /><rect fill="#a5d6a7" height="26" opacity="0.15" width="46" x="587" y="244" /><rect fill="#81d4fa" height="45" opacity="0.15" width="21" x="298" y="360" /><rect fill="#f48fb1" height="43" opacity="0.15" width="47" x="156" y="366" /><circle cx="53" cy="397" fill="#f48fb1" opacity="0.15" r="25" /><rect fill="#f48fb1" height="37" opacity="0.15" width="20" x="306" y="337" /><rect fill="#a5d6a7" height="31" opacity="0.15" width="35" x="345" y="216" /><rect fill="#a5d6a7" height="29" opacity="0.15" width="43" x="400" y="36" /><rect fill="#a5d6a7" height="23" opacity="0.15" width="32" x="199" y="358" /><circle cx="331" cy="385" fill="#a5d6a7" opacity="0.15" r="11" /><rect fill="#f48fb1" height="24" opacity="0.15" width="38" x="468" y="335" /><rect fill="#f48fb1" height="26" opacity="0.15" width="26" x="494" y="149" /><circle cx="9" cy="185" fill="#a5d6a7" opacity="0.15" r="28" /><circle cx="151" cy="192" fill="#81d4fa" opacity="0.15" r="15" /><circle cx="98" cy="182" fill="#81d4fa" opacity="0.15" r="15" /><circle cx="120" cy="263" fill="#a5d6a7" opacity="0.15" r="20" /><rect fill="#a5d6a7" height="27" opacity="0.15" width="32" x="152" y="321" /><rect fill="#e53935" filter="url(#blur)" height="50" width="50" x="155" y="50" /><text alignment-baseline="middle" fill="white" font-family="Arial" font-size="20px" text-anchor="middle" x="180.0" y="81.25">H</text><rect fill="#e53935" filter="url(#blur)" height="50" width="50" x="215" y="50" /><text alignment-baseline="middle" fill="white" font-family="Arial" font-size="20px" text-anchor="middle" x="240.0" y="81.25">A</text><rect fill="#e53935" filter="url(#blur)" height="50" width="50" x="275" y="50" /><text alignment-baseline="middle" fill="white" font-family="Arial" font-size="20px" text-anchor="middle" x="300.0" y="81.25">P</text><rect fill="#e53935" filter="url(#blur)" height="50" width="50" x="335" y="50" /><text alignment-baseline="middle" fill="white" font-family="Arial" font-size="20px" text-anchor="middle" x="360.0" y="81.25">P</text><rect fill="#e53935" filter="url(#blur)" height="50" width="50" x="395" y="50" /><text alignment-baseline="middle" fill="white" font-family="Arial" font-size="20px" text-anchor="middle" x="420.0" y="81.25">Y</text><rect fill="#1e88e5" filter="url(#blur)" height="50" width="50" x="95" y="110" /><text alignment-baseline="middle" fill="white" font-family="Arial" font-size="20px" text-anchor="middle" x="120.0" y="141.25">M</text><rect fill="#1e88e5" filter="url(#blur)" height="50" width="50" x="155" y="110" /><text alignment-baseline="middle" fill="white" font-family="Arial" font-size="20px" text-anchor="middle" x="180.0" y="141.25">O</text><rect fill="#1e88e5" filter="url(#blur)" height="50" width="50" x="215" y="110" /><text alignment-baseline="middle" fill="white" font-family="Arial" font-size="20px" text-anchor="middle" x="240.0" y="141.25">T</text><rect fill="#1e88e5" filter="url(#blur)" height="50" width="50" x="275" y="110" /><text alignment-baseline="middle" fill="white" font-family="Arial" font-size="20px" text-anchor="middle" x="300.0" y="141.25">H</text><rect fill="#1e88e5" filter="url(#blur)" height="50" width="50" x="335" y="110" /><text alignment-baseline="middle" fill="white" font-family="Arial" font-size="20px" text-anchor="middle" x="360.0" y="141.25">E</text><rect fill="#1e88e5" filter="url(#blur)" height="50" width="50" x="395" y="110" /><text alignment-baseline="middle" fill="white" font-family="Arial" font-size="20px" text-anchor="middle" x="420.0" y="141.25">R</text><rect fill="#1e88e5" filter="url(#blur)" height="50" width="50" x="455" y="110" /><g transform="translate(455,110)"><path d="M15,30 C20,10 40,10 45,30 M20,35 Q30,50 40,35 M28,30 A5,5 0 1,1 32,30" fill="none" stroke="white" stroke-width="2" /></g><rect fill="#43a047" filter="url(#blur)" height="50" width="50" x="215" y="170" /><text alignment-baseline="middle" fill="white" font-family="Arial" font-size="20px" text-anchor="middle" x="240.0" y="201.25">S</text><rect fill="#43a047" filter="url(#blur)" height="50" width="50" x="275" y="170" /><text alignment-baseline="middle" fill="white" font-family="Arial" font-size="20px" text-anchor="middle" x="300.0" y="201.25">D</text><rect fill="#43a047" filter="url(#blur)" height="50" width="50" x="335" y="170" /><text alignment-baseline="middle" fill="white" font-family="Arial" font-size="20px" text-anchor="middle" x="360.0" y="201.25">A</text><rect fill="#fbc02d" filter="url(#blur)" height="50" width="50" x="215" y="230" /><text alignment-baseline="middle" fill="white" font-family="Arial" font-size="20px" text-anchor="middle" x="240.0" y="261.25">Y</text><rect fill="#fbc02d" filter="url(#blur)" height="50" width="50" x="275" y="230" /><text alignment-baseline="middle" fill="white" font-family="Arial" font-size="20px" text-anchor="middle" x="300.0" y="261.25">!</text></svg>