<?xml version="1.0" encoding="utf-8" ?>
<svg baseProfile="tiny" height="400" version="1.2" width="600" xmlns="http://www.w3.org/2000/svg" xmlns:ev="http://www.w3.org/2001/xml-events" xmlns:xlink="http://www.w3.org/1999/xlink"><defs><linearGradient id="bg-gradient" x1="0" x2="1" y1="0" y2="1"><stop offset="0.00" stop-color="#e53935" stop-opacity="0.15" /><stop offset="0.50" stop-color="#1e88e5" stop-opacity="0.15" /><stop offset="1.00" stop-color="#43a047" stop-opacity="0.15" /></linearGradient></defs><rect fill="url(#bg-gradient)" height="400" width="600" x="0" y="0" /><rect fill="#43a047" height="10" opacity="0.25" width="54" x="130" y="372" /><circle cx="474" cy="344" fill="#1e88e5" opacity="0.25" r="27" /><rect fill="#43a047" height="24" opacity="0.25" width="55" x="388" y="117" /><rect fill="#e53935" height="11" opacity="0.25" width="47" x="282" y="96" /><rect fill="#1e88e5" height="26" opacity="0.25" width="26" x="16" y="123" /><circle cx="34" cy="228" fill="#e53935" opacity="0.25" r="29" /><rect fill="#43a047" height="21" opacity="0.25" width="21" x="49" y="125" /><rect fill="#1e88e5" height="11" opacity="0.25" width="53" x="239" y="276" /><circle cx="296" cy="119" fill="#43a047" opacity="0.25" r="28" /><rect fill="#43a047" height="14" opacity="0.25" width="59" x="328" y="121" /><rect fill="#43a047" height="29" opacity="0.25" width="29" x="226" y="211" /><rect fill="#e53935" height="30" opacity="0.25" width="51" x="570" y="302" /><rect fill="#1e88e5" height="21" opacity="0.25" width="21" x="569" y="253" /><rect fill="#43a047" height="23" opacity="0.25" width="60" x="390" y="268" /><rect fill="#e53935" height="27" opacity="0.25" width="51" x="307" y="192" /><rect fill="#e53935" height="24" opacity="0.25" width="49" x="230" y="153" /><circle cx="422" cy="213" fill="#43a047" opacity="0.25" r="27" /><rect fill="#e53935" height="28" opacity="0.25" width="28" x="397" y="124" /><circle cx="80" cy="230" fill="#1e88e5" opacity="0.25" r="21" /><circle cx="195" cy="26" fill="#43a047" opacity="0.25" r="18" /><rect fill="#43a047" height="28" opacity="0.25" width="52" x="40" y="37" /><rect fill="#43a047" height="35" opacity="0.25" width="35" x="572" y="111" /><circle cx="310" cy="7" fill="#1e88e5" opacity="0.25" r="16" /><circle cx="120" cy="382" fill="#43a047" opacity="0.25" r="25" /><circle cx="209" cy="203" fill="#43a047" opacity="0.25" r="17" /><rect fill="#1e88e5" height="34" opacity="0.25" width="34" x="289" y="194" /><rect fill="#43a047" height="28" opacity="0.25" width="28" x="367" y="157" /><rect fill="#43a047" height="25" opacity="0.25" width="46" x="509" y="238" /><rect fill="#e53935" height="11" opacity="0.25" width="66" x="379" y="160" /><rect fill="#e53935" height="28" opacity="0.25" width="28" x="149" y="8" /><rect fill="#43a047" height="33" opacity="0.25" width="33" x="593" y="368" /><rect fill="#e53935" height="22" opacity="0.25" width="54" x="200" y="168" /><rect fill="#e53935" height="40" opacity="0.25" width="40" x="511" y="281" /><rect fill="#1e88e5" height="35" opacity="0.25" width="35" x="263" y="390" /><rect fill="#43a047" height="25" opacity="0.25" width="25" x="502" y="235" /><rect fill="#1e88e5" height="37" opacity="0.25" width="37" x="173" y="71" /><rect fill="#e53935" height="26" opacity="0.25" width="43" x="555" y="328" /><circle cx="49" cy="391" fill="#e53935" opacity="0.25" r="10" /><rect fill="#e53935" height="10" opacity="0.25" width="49" x="236" y="34" /><circle cx="466" cy="191" fill="#43a047" opacity="0.25" r="11" /><rect fill="#43a047" height="35" opacity="0.25" width="35" x="494" y="337" /><circle cx="544" cy="282" fill="#e53935" opacity="0.25" r="23" /><circle cx="542" cy="369" fill="#e53935" opacity="0.25" r="18" /><rect fill="#1e88e5" height="33" opacity="0.25" width="33" x="17" y="257" /><circle cx="98" cy="268" fill="#e53935" opacity="0.25" r="14" /><circle cx="539" cy="129" fill="#e53935" opacity="0.25" r="21" /><rect fill="#1e88e5" height="24" opacity="0.25" width="65" x="80" y="191" /><rect fill="#e53935" height="22" opacity="0.25" width="22" x="231" y="153" /><rect fill="#43a047" height="32" opacity="0.25" width="32" x="32" y="47" /><rect fill="#1e88e5" height="30" opacity="0.25" width="43" x="565" y="243" /><circle cx="175" cy="42" fill="#43a047" opacity="0.25" r="25" /><rect fill="#43a047" height="26" opacity="0.25" width="46" x="339" y="289" /><circle cx="216" cy="354" fill="#e53935" opacity="0.25" r="28" /><rect fill="#1e88e5" height="27" opacity="0.25" width="57" x="47" y="38" /><rect fill="#43a047" height="30" opacity="0.25" width="30" x="33" y="91" /><circle cx="147" cy="385" fill="#e53935" opacity="0.25" r="22" /><circle cx="166" cy="288" fill="#1e88e5" opacity="0.25" r="17" /><rect fill="#1e88e5" height="32" opacity="0.25" width="32" x="553" y="169" /><rect fill="#e53935" height="31" opacity="0.25" width="31" x="80" y="256" /><circle cx="447" cy="118" fill="#e53935" opacity="0.25" r="12" /><rect fill="#43a047" height="10" opacity="0.25" width="60" x="406" y="396" /><rect fill="#1e88e5" height="27" opacity="0.25" width="27" x="461" y="251" /><rect fill="#43a047" height="28" opacity="0.25" width="51" x="384" y="221" /><rect fill="#1e88e5" height="39" opacity="0.25" width="39" x="87" y="395" /><rect fill="#e53935" height="14" opacity="0.25" width="57" x="75" y="42" /><rect fill="#43a047" height="20" opacity="0.25" width="64" x="157" y="378" /><rect fill="#e53935" height="24" opacity="0.25" width="59" x="93" y="2" /><rect fill="#1e88e5" height="15" opacity="0.25" width="45" x="104" y="67" /><rect fill="#1e88e5" height="23" opacity="0.25" width="72" x="570" y="284" /><circle cx="91" cy="181" fill="#e53935" opacity="0.25" r="27" /><circle cx="332" cy="197" fill="#43a047" opacity="0.25" r="10" /><rect fill="#1e88e5" height="27" opacity="0.25" width="45" x="397" y="398" /><circle cx="533" cy="86" fill="#43a047" opacity="0.25" r="22" /><circle cx="275" cy="154" fill="#e53935" opacity="0.25" r="18" /><rect fill="#e53935" height="18" opacity="0.25" width="67" x="64" y="85" /><rect fill="#1e88e5" height="21" opacity="0.25" width="44" x="495" y="400" /><rect fill="#e53935" height="16" opacity="0.25" width="79" x="507" y="304" /><rect fill="#e53935" height="22" opacity="0.25" width="40" x="138" y="155" /><rect fill="#43a047" height="20" opacity="0.25" width="68" x="389" y="168" /><rect fill="#43a047" height="29" opacity="0.25" width="60" x="139" y="153" /><rect fill="#e53935" height="25" opacity="0.25" width="25" x="490" y="160" /><rect fill="#1e88e5" height="25" opacity="0.25" width="80" x="298" y="376" /><rect fill="#e53935" height="28" opacity="0.25" width="28" x="333" y="192" /><rect fill="#1e88e5" height="28" opacity="0.25" width="52" x="116" y="288" /><rect fill="#e53935" height="34" opacity="0.25" width="34" x="563" y="13" /><rect fill="#e53935" height="22" opacity="0.25" width="22" x="448" y="149" /><rect fill="#43a047" height="19" opacity="0.25" width="80" x="511" y="71" /><circle cx="157" cy="366" fill="#1e88e5" opacity="0.25" r="23" /><rect fill="#e53935" height="28" opacity="0.25" width="70" x="459" y="306" /><rect fill="#43a047" height="27" opacity="0.25" width="66" x="518" y="354" /><circle cx="549" cy="304" fill="#1e88e5" opacity="0.25" r="30" /><circle cx="254" cy="336" fill="#e53935" opacity="0.25" r="21" /><circle cx="45" cy="288" fill="#43a047" opacity="0.25" r="30" /><rect fill="#43a047" height="30" opacity="0.25" width="30" x="409" y="385" /><rect fill="#e53935" height="17" opacity="0.25" width="56" x="10" y="50" /><rect fill="#43a047" height="38" opacity="0.25" width="38" x="531" y="285" /><rect fill="#43a047" height="31" opacity="0.25" width="31" x="226" y="228" /><rect fill="#1e88e5" height="10" opacity="0.25" width="62" x="512" y="77" /><rect fill="#e53935" height="13" opacity="0.25" width="45" x="302" y="212" /><rect fill="#e53935" height="30" opacity="0.25" width="30" x="356" y="159" /><rect fill="#e53935" height="40" width="40" x="175" y="125" /><text fill="white" font-size="18px" font-weight="bold" text-anchor="middle" x="195.0" y="151.66666666666666">H</text><rect fill="#e53935" height="40" width="40" x="225" y="125" /><text fill="white" font-size="18px" font-weight="bold" text-anchor="middle" x="245.0" y="151.66666666666666">A</text><rect fill="#e53935" height="40" width="40" x="275" y="125" /><text fill="white" font-size="18px" font-weight="bold" text-anchor="middle" x="295.0" y="151.66666666666666">P</text><rect fill="#e53935" height="40" width="40" x="325" y="125" /><text fill="white" font-size="18px" font-weight="bold" text-anchor="middle" x="345.0" y="151.66666666666666">P</text><rect fill="#e53935" height="40" width="40" x="375" y="125" /><text fill="white" font-size="18px" font-weight="bold" text-anchor="middle" x="395.0" y="151.66666666666666">Y</text><rect fill="#1e88e5" height="40" width="40" x="100" y="175" /><text fill="white" font-size="18px" font-weight="bold" text-anchor="middle" x="120.0" y="201.66666666666666">M</text><rect fill="#1e88e5" height="40" width="40" x="150" y="175" /><text fill="white" font-size="18px" font-weight="bold" text-anchor="middle" x="170.0" y="201.66666666666666">O</text><rect fill="#1e88e5" height="40" width="40" x="200" y="175" /><text fill="white" font-size="18px" font-weight="bold" text-anchor="middle" x="220.0" y="201.66666666666666">T</text><rect fill="#1e88e5" height="40" width="40" x="250" y="175" /><text fill="white" font-size="18px" font-weight="bold" text-anchor="middle" x="270.0" y="201.66666666666666">H</text><rect fill="#1e88e5" height="40" width="40" x="300" y="175" /><text fill="white" font-size="18px" font-weight="bold" text-anchor="middle" x="320.0" y="201.66666666666666">E</text><rect fill="#1e88e5" height="40" width="40" x="350" y="175" /><text fill="white" font-size="18px" font-weight="bold" text-anchor="middle" x="370.0" y="201.66666666666666">R</text><rect fill="#1e88e5" height="40" width="40" x="400" y="175" /><text fill="white" font-size="18px" font-weight="bold" text-anchor="middle" x="420.0" y="201.66666666666666">'</text><rect fill="#1e88e5" height="40" width="40" x="450" y="175" /><text fill="white" font-size="18px" font-weight="bold" text-anchor="middle" x="470.0" y="201.66666666666666">S</text><rect fill="#43a047" height="40" width="40" x="200" y="225" /><text fill="white" font-size="18px" font-weight="bold" text-anchor="middle" x="220.0" y="251.66666666666666">D</text><rect fill="#43a047" height="40" width="40" x="250" y="225" /><text fill="white" font-size="18px" font-weight="bold" text-anchor="middle" x="270.0" y="251.66666666666666">A</text><rect fill="#43a047" height="40" width="40" x="300" y="225" /><text fill="white" font-size="18px" font-weight="bold" text-anchor="middle" x="320.0" y="251.66666666666666">Y</text><rect fill="#43a047" height="40" width="40" x="350" y="225" /><text fill="white" font-size="18px" font-weight="bold" text-anchor="middle" x="370.0" y="251.66666666666666">!</text></svg>