<?xml version="1.0" encoding="UTF-8"?>
<svg width="800" height="600" xmlns="http://www.w3.org/2000/svg">
<style>
  .square-text {
    font-family: Helvetica, Arial, sans-serif;
    font-size: 36px;
    fill: black;
    text-anchor: middle;
    dominant-baseline: central;
  }
</style>
<rect x="281" y="250" width="54" height="54" fill="#f99c9a" opacity="0.25375161328340007" rx="6" ry="6"/>
<rect x="558" y="44" width="135" height="67" fill="#f99c9a" opacity="0.35150492311343673" rx="10" ry="10"/>
<rect x="238" y="258" width="137" height="41" fill="#f99c9a" opacity="0.26405428597923886" rx="10" ry="10"/>
<rect x="718" y="429" width="54" height="54" fill="#8ebcf2" opacity="0.35740294193836053" rx="6" ry="6"/>
<circle cx="6" cy="163" r="57" fill="#a4d6a2" opacity="0.371414568501674"/>
<circle cx="781" cy="344" r="36" fill="#a4d6a2" opacity="0.2733219249717672"/>
<rect x="352" y="309" width="93" height="91" fill="#fce785" opacity="0.2645074565250196" rx="10" ry="10"/>
<rect x="387" y="40" width="130" height="58" fill="#fce785" opacity="0.33043421371820514" rx="10" ry="10"/>
<rect x="71" y="46" width="54" height="54" fill="#a4d6a2" opacity="0.3366028217885143" rx="6" ry="6"/>
<circle cx="103" cy="389" r="47" fill="#f99c9a" opacity="0.37829765815227206"/>
<circle cx="363" cy="214" r="47" fill="#a4d6a2" opacity="0.27439811457341273"/>
<rect x="175" y="250" width="50" height="50" fill="#f99c9a" opacity="0.3413696508500482" rx="6" ry="6"/>
<circle cx="655" cy="570" r="44" fill="#fce785" opacity="0.2904921740176417"/>
<rect x="57" y="234" width="42" height="42" fill="#a4d6a2" opacity="0.37642778802847143" rx="6" ry="6"/>
<circle cx="216" cy="580" r="50" fill="#fce785" opacity="0.2901611313963554"/>
<rect x="658" y="234" width="78" height="56" fill="#fce785" opacity="0.30934478515909963" rx="10" ry="10"/>
<rect x="551" y="134" width="155" height="77" fill="#8ebcf2" opacity="0.361748347313741" rx="10" ry="10"/>
<circle cx="141" cy="521" r="61" fill="#fce785" opacity="0.30429946655704165"/>
<rect x="156" y="321" width="80" height="90" fill="#f99c9a" opacity="0.3791654364499999" rx="10" ry="10"/>
<rect x="394" y="390" width="78" height="78" fill="#fce785" opacity="0.3394613546097961" rx="6" ry="6"/>

  <rect x="130.0" y="100" width="100" height="100" 
        fill="#e53935" opacity="0.5" rx="10" ry="10"/>
  <text x="180.0" y="150.0" class="square-text" opacity="1">H</text>
  <rect x="240.0" y="100" width="100" height="100" 
        fill="#e53935" opacity="0.5" rx="10" ry="10"/>
  <text x="290.0" y="150.0" class="square-text" opacity="1">a</text>
  <rect x="350.0" y="100" width="100" height="100" 
        fill="#e53935" opacity="0.5" rx="10" ry="10"/>
  <text x="400.0" y="150.0" class="square-text" opacity="1">p</text>
  <rect x="460.0" y="100" width="100" height="100" 
        fill="#e53935" opacity="0.5" rx="10" ry="10"/>
  <text x="510.0" y="150.0" class="square-text" opacity="1">p</text>
  <rect x="570.0" y="100" width="100" height="100" 
        fill="#e53935" opacity="0.5" rx="10" ry="10"/>
  <text x="620.0" y="150.0" class="square-text" opacity="1">y</text>
  <rect x="-35.0" y="210" width="100" height="100" 
        fill="#1e88e5" opacity="0.5" rx="10" ry="10"/>
  <text x="15.0" y="260.0" class="square-text" opacity="1">M</text>
  <rect x="75.0" y="210" width="100" height="100" 
        fill="#1e88e5" opacity="0.5" rx="10" ry="10"/>
  <text x="125.0" y="260.0" class="square-text" opacity="1">o</text>
  <rect x="185.0" y="210" width="100" height="100" 
        fill="#1e88e5" opacity="0.5" rx="10" ry="10"/>
  <text x="235.0" y="260.0" class="square-text" opacity="1">t</text>
  <rect x="295.0" y="210" width="100" height="100" 
        fill="#1e88e5" opacity="0.5" rx="10" ry="10"/>
  <text x="345.0" y="260.0" class="square-text" opacity="1">h</text>
  <rect x="405.0" y="210" width="100" height="100" 
        fill="#1e88e5" opacity="0.5" rx="10" ry="10"/>
  <text x="455.0" y="260.0" class="square-text" opacity="1">e</text>
  <rect x="515.0" y="210" width="100" height="100" 
        fill="#1e88e5" opacity="0.5" rx="10" ry="10"/>
  <text x="565.0" y="260.0" class="square-text" opacity="1">r</text>
  <rect x="625.0" y="210" width="100" height="100" 
        fill="#1e88e5" opacity="0.5" rx="10" ry="10"/>
  <text x="675.0" y="260.0" class="square-text" opacity="1">'</text>
  <rect x="735.0" y="210" width="100" height="100" 
        fill="#1e88e5" opacity="0.5" rx="10" ry="10"/>
  <text x="785.0" y="260.0" class="square-text" opacity="1">s</text>
  <rect x="185.0" y="320" width="100" height="100" 
        fill="#43a047" opacity="0.5" rx="10" ry="10"/>
  <text x="235.0" y="370.0" class="square-text" opacity="1">D</text>
  <rect x="295.0" y="320" width="100" height="100" 
        fill="#43a047" opacity="0.5" rx="10" ry="10"/>
  <text x="345.0" y="370.0" class="square-text" opacity="1">a</text>
  <rect x="405.0" y="320" width="100" height="100" 
        fill="#43a047" opacity="0.5" rx="10" ry="10"/>
  <text x="455.0" y="370.0" class="square-text" opacity="1">y</text>
  <rect x="515.0" y="320" width="100" height="100" 
        fill="#43a047" opacity="0.5" rx="10" ry="10"/>
  <text x="565.0" y="370.0" class="square-text" opacity="1">!</text>
</svg>