<?xml version="1.0" encoding="UTF-8"?>
<svg width="800" height="600" xmlns="http://www.w3.org/2000/svg">
<style>
  .square-text {
    font-family: Helvetica, Arial, sans-serif;
    font-size: 36px;
    fill: black;
    text-anchor: middle;
    dominant-baseline: central;
  }
</style>

  <rect x="130.0" y="100" width="100" height="100" 
        fill="#e53935" opacity="0.5" rx="10" ry="10"/>
  <text x="180.0" y="150.0" class="square-text" opacity="1">H</text>
  <rect x="240.0" y="100" width="100" height="100" 
        fill="#e53935" opacity="0.5" rx="10" ry="10"/>
  <text x="290.0" y="150.0" class="square-text" opacity="1">a</text>
  <rect x="350.0" y="100" width="100" height="100" 
        fill="#e53935" opacity="0.5" rx="10" ry="10"/>
  <text x="400.0" y="150.0" class="square-text" opacity="1">p</text>
  <rect x="460.0" y="100" width="100" height="100" 
        fill="#e53935" opacity="0.5" rx="10" ry="10"/>
  <text x="510.0" y="150.0" class="square-text" opacity="1">p</text>
  <rect x="570.0" y="100" width="100" height="100" 
        fill="#e53935" opacity="0.5" rx="10" ry="10"/>
  <text x="620.0" y="150.0" class="square-text" opacity="1">y</text>
  <rect x="-35.0" y="210" width="100" height="100" 
        fill="#1e88e5" opacity="0.5" rx="10" ry="10"/>
  <text x="15.0" y="260.0" class="square-text" opacity="1">M</text>
  <rect x="75.0" y="210" width="100" height="100" 
        fill="#1e88e5" opacity="0.5" rx="10" ry="10"/>
  <text x="125.0" y="260.0" class="square-text" opacity="1">o</text>
  <rect x="185.0" y="210" width="100" height="100" 
        fill="#1e88e5" opacity="0.5" rx="10" ry="10"/>
  <text x="235.0" y="260.0" class="square-text" opacity="1">t</text>
  <rect x="295.0" y="210" width="100" height="100" 
        fill="#1e88e5" opacity="0.5" rx="10" ry="10"/>
  <text x="345.0" y="260.0" class="square-text" opacity="1">h</text>
  <rect x="405.0" y="210" width="100" height="100" 
        fill="#1e88e5" opacity="0.5" rx="10" ry="10"/>
  <text x="455.0" y="260.0" class="square-text" opacity="1">e</text>
  <rect x="515.0" y="210" width="100" height="100" 
        fill="#1e88e5" opacity="0.5" rx="10" ry="10"/>
  <text x="565.0" y="260.0" class="square-text" opacity="1">r</text>
  <rect x="625.0" y="210" width="100" height="100" 
        fill="#1e88e5" opacity="0.5" rx="10" ry="10"/>
  <text x="675.0" y="260.0" class="square-text" opacity="1">'</text>
  <rect x="735.0" y="210" width="100" height="100" 
        fill="#1e88e5" opacity="0.5" rx="10" ry="10"/>
  <text x="785.0" y="260.0" class="square-text" opacity="1">s</text>
  <rect x="185.0" y="320" width="100" height="100" 
        fill="#43a047" opacity="0.5" rx="10" ry="10"/>
  <text x="235.0" y="370.0" class="square-text" opacity="1">D</text>
  <rect x="295.0" y="320" width="100" height="100" 
        fill="#43a047" opacity="0.5" rx="10" ry="10"/>
  <text x="345.0" y="370.0" class="square-text" opacity="1">a</text>
  <rect x="405.0" y="320" width="100" height="100" 
        fill="#43a047" opacity="0.5" rx="10" ry="10"/>
  <text x="455.0" y="370.0" class="square-text" opacity="1">y</text>
  <rect x="515.0" y="320" width="100" height="100" 
        fill="#43a047" opacity="0.5" rx="10" ry="10"/>
  <text x="565.0" y="370.0" class="square-text" opacity="1">!</text>
</svg>