<?xml version="1.0" encoding="utf-8" ?>
<svg baseProfile="full" height="600" version="1.1" width="600" xmlns="http://www.w3.org/2000/svg" xmlns:ev="http://www.w3.org/2001/xml-events" xmlns:xlink="http://www.w3.org/1999/xlink"><defs><linearGradient id="grad" x1="0" x2="1" y1="0" y2="1"><stop offset="0%" stop-color="#fbc02d" stop-opacity="0.15" /><stop offset="50%" stop-color="#1e88e5" stop-opacity="0.15" /><stop offset="100%" stop-color="#43a047" stop-opacity="0.15" /></linearGradient><filter id="blur"><feGaussianBlur in="SourceGraphic" stdDeviation="2" /></filter></defs><rect fill="url(#grad)" height="600" width="600" x="0" y="0" /><rect fill="#43a047" height="39" opacity="0.25" width="39" x="478" y="274" /><rect fill="#43a047" height="33" opacity="0.25" width="33" x="444" y="579" /><circle cx="534" cy="205" fill="#1e88e5" opacity="0.25" r="10" /><circle cx="246" cy="154" fill="#43a047" opacity="0.25" r="16" /><rect fill="#e53935" height="10" opacity="0.25" width="20" x="445" y="420" /><rect fill="#1e88e5" height="18" opacity="0.25" width="18" x="208" y="422" /><rect fill="#43a047" height="31" opacity="0.25" width="31" x="164" y="262" /><circle cx="415" cy="244" fill="#e53935" opacity="0.25" r="6" /><circle cx="28" cy="251" fill="#1e88e5" opacity="0.25" r="17" /><rect fill="#1e88e5" height="11" opacity="0.25" width="23" x="497" y="573" /><rect fill="#1e88e5" height="15" opacity="0.25" width="15" x="37" y="206" /><circle cx="29" cy="264" fill="#1e88e5" opacity="0.25" r="17" /><rect fill="#e53935" height="30" opacity="0.25" width="30" x="563" y="180" /><rect fill="#e53935" height="11" opacity="0.25" width="11" x="497" y="20" /><rect fill="#1e88e5" height="19" opacity="0.25" width="38" x="305" y="65" /><rect fill="#43a047" height="20" opacity="0.25" width="40" x="92" y="406" /><circle cx="241" cy="114" fill="#43a047" opacity="0.25" r="14" /><rect fill="#43a047" height="31" opacity="0.25" width="31" x="123" y="534" /><rect fill="#e53935" height="38" opacity="0.25" width="38" x="257" y="508" /><circle cx="125" cy="320" fill="#43a047" opacity="0.25" r="10" /><rect fill="#1e88e5" height="39" opacity="0.25" width="39" x="399" y="241" /><circle cx="147" cy="109" fill="#e53935" opacity="0.25" r="7" /><rect fill="#43a047" height="9" opacity="0.25" width="18" x="450" y="418" /><circle cx="502" cy="546" fill="#43a047" opacity="0.25" r="10" /><circle cx="324" cy="558" fill="#1e88e5" opacity="0.25" r="11" /><rect fill="#e53935" height="38" opacity="0.25" width="38" x="252" y="284" /><rect fill="#1e88e5" height="18" opacity="0.25" width="36" x="486" y="376" /><circle cx="35" cy="55" fill="#43a047" opacity="0.25" r="16" /><circle cx="259" cy="565" fill="#1e88e5" opacity="0.25" r="11" /><rect fill="#e53935" height="27" opacity="0.25" width="27" x="371" y="124" /><rect fill="#1e88e5" height="19" opacity="0.25" width="39" x="397" y="8" /><rect fill="#e53935" height="19" opacity="0.25" width="39" x="308" y="92" /><rect fill="#1e88e5" height="19" opacity="0.25" width="39" x="215" y="164" /><rect fill="#e53935" height="35" opacity="0.25" width="35" x="324" y="416" /><rect fill="#43a047" height="12" opacity="0.25" width="25" x="82" y="503" /><rect fill="#e53935" height="19" opacity="0.25" width="38" x="340" y="432" /><circle cx="267" cy="518" fill="#1e88e5" opacity="0.25" r="6" /><rect fill="#43a047" height="12" opacity="0.25" width="24" x="560" y="334" /><circle cx="53" cy="188" fill="#1e88e5" opacity="0.25" r="15" /><rect fill="#e53935" height="22" opacity="0.25" width="22" x="139" y="3" /><rect fill="#e53935" height="28" opacity="0.25" width="28" x="312" y="321" /><circle cx="161" cy="255" fill="#43a047" opacity="0.25" r="13" /><rect fill="#1e88e5" height="35" opacity="0.25" width="35" x="133" y="420" /><rect fill="#e53935" height="9" opacity="0.25" width="18" x="489" y="136" /><rect fill="#e53935" height="16" opacity="0.25" width="16" x="335" y="288" /><rect fill="#1e88e5" height="11" opacity="0.25" width="22" x="376" y="186" /><rect fill="#e53935" height="40" opacity="0.25" width="40" x="229" y="21" /><rect fill="#e53935" height="24" opacity="0.25" width="24" x="234" y="91" /><rect fill="#43a047" height="11" opacity="0.25" width="22" x="172" y="50" /><rect fill="#1e88e5" height="6" opacity="0.25" width="12" x="266" y="152" /><circle cx="580" cy="120" fill="#43a047" opacity="0.25" r="5" /><rect fill="#43a047" height="36" opacity="0.25" width="36" x="445" y="464" /><rect fill="#e53935" height="16" opacity="0.25" width="32" x="121" y="229" /><circle cx="272" cy="294" fill="#1e88e5" opacity="0.25" r="16" /><rect fill="#e53935" height="18" opacity="0.25" width="37" x="133" y="441" /><rect fill="#43a047" height="33" opacity="0.25" width="33" x="220" y="289" /><circle cx="428" cy="184" fill="#e53935" opacity="0.25" r="11" /><circle cx="297" cy="268" fill="#43a047" opacity="0.25" r="8" /><rect fill="#43a047" height="14" opacity="0.25" width="28" x="254" y="378" /><rect fill="#1e88e5" height="10" opacity="0.25" width="10" x="469" y="87" /><circle cx="331" cy="407" fill="#e53935" opacity="0.25" r="15" /><rect fill="#43a047" height="33" opacity="0.25" width="33" x="392" y="433" /><rect fill="#e53935" height="13" opacity="0.25" width="27" x="74" y="97" /><circle cx="340" cy="240" fill="#1e88e5" opacity="0.25" r="12" /><rect fill="#43a047" height="18" opacity="0.25" width="18" x="46" y="5" /><rect fill="#43a047" height="22" opacity="0.25" width="22" x="390" y="309" /><rect fill="#43a047" height="5" opacity="0.25" width="11" x="135" y="572" /><circle cx="266" cy="173" fill="#1e88e5" opacity="0.25" r="13" /><rect fill="#1e88e5" height="6" opacity="0.25" width="12" x="479" y="135" /><rect fill="#1e88e5" height="14" opacity="0.25" width="14" x="543" y="443" /><circle cx="320" cy="45" fill="#1e88e5" opacity="0.25" r="7" /><rect fill="#1e88e5" height="9" opacity="0.25" width="19" x="369" y="440" /><rect fill="#1e88e5" height="20" opacity="0.25" width="20" x="270" y="529" /><circle cx="323" cy="503" fill="#e53935" opacity="0.25" r="17" /><rect fill="#e53935" height="16" opacity="0.25" width="16" x="450" y="54" /><circle cx="235" cy="187" fill="#1e88e5" opacity="0.25" r="5" /><rect fill="#e53935" height="11" opacity="0.25" width="23" x="167" y="478" /><rect fill="#43a047" height="10" opacity="0.25" width="21" x="41" y="452" /><rect fill="#e53935" height="25" opacity="0.25" width="25" x="496" y="468" /><rect fill="#e53935" height="21" opacity="0.25" width="21" x="151" y="126" /><circle cx="290" cy="184" fill="#e53935" opacity="0.25" r="18" /><rect fill="#43a047" height="28" opacity="0.25" width="28" x="520" y="279" /><rect fill="#43a047" height="10" opacity="0.25" width="10" x="217" y="597" /><rect fill="#e53935" height="39" opacity="0.25" width="39" x="184" y="426" /><circle cx="510" cy="96" fill="#1e88e5" opacity="0.25" r="19" /><circle cx="291" cy="124" fill="#1e88e5" opacity="0.25" r="11" /><rect fill="#e53935" height="14" opacity="0.25" width="14" x="108" y="331" /><circle cx="471" cy="491" fill="#43a047" opacity="0.25" r="12" /><rect fill="#43a047" height="5" opacity="0.25" width="11" x="5" y="337" /><rect fill="#43a047" height="40" opacity="0.25" width="40" x="463" y="332" /><rect fill="#e53935" height="16" opacity="0.25" width="16" x="582" y="132" /><rect fill="#e53935" height="35" opacity="0.25" width="35" x="289" y="330" /><rect fill="#43a047" height="40" opacity="0.25" width="40" x="72" y="560" /><rect fill="#e53935" height="9" opacity="0.25" width="18" x="94" y="408" /><circle cx="408" cy="91" fill="#e53935" opacity="0.25" r="5" /><circle cx="397" cy="412" fill="#43a047" opacity="0.25" r="9" /><rect fill="#1e88e5" height="19" opacity="0.25" width="19" x="157" y="123" /><rect fill="#43a047" height="10" opacity="0.25" width="21" x="317" y="134" /><circle cx="376" cy="524" fill="#1e88e5" opacity="0.25" r="8" /><rect fill="#43a047" height="9" opacity="0.25" width="18" x="397" y="487" /><rect fill="#1e88e5" height="34" opacity="0.25" width="34" x="433" y="92" /><rect fill="#1e88e5" height="15" opacity="0.25" width="30" x="190" y="444" /><circle cx="41" cy="525" fill="#1e88e5" opacity="0.25" r="10" /><rect fill="#1e88e5" height="39" opacity="0.25" width="39" x="229" y="158" /><rect fill="#1e88e5" height="19" opacity="0.25" width="19" x="537" y="85" /><rect fill="#e53935" height="9" opacity="0.25" width="19" x="81" y="489" /><circle cx="307" cy="254" fill="#1e88e5" opacity="0.25" r="13" /><rect fill="#e53935" height="13" opacity="0.25" width="27" x="582" y="48" /><circle cx="525" cy="110" fill="#1e88e5" opacity="0.25" r="13" /><rect fill="#43a047" height="15" opacity="0.25" width="31" x="96" y="475" /><rect fill="#43a047" height="18" opacity="0.25" width="18" x="259" y="363" /><circle cx="515" cy="16" fill="#43a047" opacity="0.25" r="6" /><rect fill="#e53935" height="35" opacity="0.25" width="35" x="473" y="183" /><rect fill="#43a047" height="11" opacity="0.25" width="23" x="46" y="85" /><rect fill="#43a047" height="17" opacity="0.25" width="34" x="321" y="465" /><rect fill="#e53935" height="20" opacity="0.25" width="40" x="271" y="349" /><circle cx="189" cy="80" fill="#43a047" opacity="0.25" r="16" /><rect fill="#e53935" height="13" opacity="0.25" width="27" x="108" y="444" /><circle cx="404" cy="119" fill="#e53935" opacity="0.25" r="5" /><rect fill="#1e88e5" height="32" opacity="0.25" width="32" x="488" y="471" /><rect fill="#43a047" height="29" opacity="0.25" width="29" x="498" y="310" /><rect fill="#e53935" height="6" opacity="0.25" width="12" x="404" y="309" /><circle cx="14" cy="195" fill="#e53935" opacity="0.25" r="6" /><rect fill="#1e88e5" height="16" opacity="0.25" width="16" x="192" y="27" /><rect fill="#43a047" height="23" opacity="0.25" width="23" x="148" y="247" /><rect fill="#1e88e5" height="19" opacity="0.25" width="19" x="195" y="88" /><circle cx="485" cy="432" fill="#e53935" opacity="0.25" r="5" /><circle cx="156" cy="455" fill="#1e88e5" opacity="0.25" r="20" /><rect fill="#e53935" height="14" opacity="0.25" width="28" x="20" y="460" /><circle cx="301" cy="583" fill="#1e88e5" opacity="0.25" r="18" /><circle cx="341" cy="8" fill="#43a047" opacity="0.25" r="6" /><rect fill="#1e88e5" height="37" opacity="0.25" width="37" x="442" y="425" /><rect fill="#e53935" height="19" opacity="0.25" width="19" x="592" y="567" /><rect fill="#43a047" height="13" opacity="0.25" width="26" x="409" y="497" /><rect fill="#e53935" height="32" opacity="0.25" width="32" x="499" y="237" /><rect fill="#1e88e5" height="28" opacity="0.25" width="28" x="19" y="432" /><rect fill="#43a047" height="38" opacity="0.25" width="38" x="65" y="274" /><rect fill="#43a047" height="12" opacity="0.25" width="25" x="484" y="119" /><rect fill="#1e88e5" height="32" opacity="0.25" width="32" x="355" y="459" /><circle cx="165" cy="294" fill="#e53935" opacity="0.25" r="16" /><rect fill="#43a047" height="8" opacity="0.25" width="17" x="352" y="448" /><circle cx="347" cy="479" fill="#1e88e5" opacity="0.25" r="7" /><rect fill="#43a047" height="36" opacity="0.25" width="36" x="399" y="426" /><rect fill="#e53935" height="35" opacity="0.25" width="35" x="368" y="483" /><rect fill="#43a047" height="32" opacity="0.25" width="32" x="212" y="289" /><circle cx="494" cy="132" fill="#e53935" opacity="0.25" r="7" /><circle cx="503" cy="103" fill="#1e88e5" opacity="0.25" r="17" /><rect fill="#43a047" height="8" opacity="0.25" width="16" x="310" y="240" /><circle cx="18" cy="367" fill="#1e88e5" opacity="0.25" r="19" /><rect fill="#43a047" height="18" opacity="0.25" width="36" x="162" y="178" /><circle cx="65" cy="345" fill="#e53935" opacity="0.25" r="11" /><rect fill="#e53935" height="27" opacity="0.25" width="27" x="232" y="123" /><rect fill="#1e88e5" height="17" opacity="0.25" width="35" x="264" y="348" /><circle cx="570" cy="273" fill="#e53935" opacity="0.25" r="19" /><rect fill="#e53935" height="32" opacity="0.25" width="32" x="527" y="106" /><rect fill="#43a047" height="6" opacity="0.25" width="13" x="468" y="113" /><rect fill="#43a047" height="11" opacity="0.25" width="11" x="104" y="575" /><circle cx="171" cy="120" fill="#e53935" opacity="0.25" r="18" /><rect fill="#1e88e5" height="16" opacity="0.25" width="32" x="160" y="299" /><rect fill="#43a047" height="14" opacity="0.25" width="14" x="510" y="101" /><rect fill="#e53935" height="6" opacity="0.25" width="13" x="342" y="141" /><rect fill="#1e88e5" height="8" opacity="0.25" width="17" x="425" y="6" /><rect fill="#e53935" height="7" opacity="0.25" width="15" x="293" y="517" /><rect fill="#43a047" height="10" opacity="0.25" width="21" x="381" y="424" /><rect fill="#43a047" height="34" opacity="0.25" width="34" x="251" y="155" /><rect fill="#1e88e5" height="17" opacity="0.25" width="35" x="233" y="141" /><rect fill="#43a047" height="20" opacity="0.25" width="40" x="419" y="469" /><rect fill="#e53935" height="24" opacity="0.25" width="24" x="370" y="30" /><circle cx="529" cy="71" fill="#1e88e5" opacity="0.25" r="6" /><rect fill="#e53935" height="11" opacity="0.25" width="23" x="411" y="168" /><rect fill="#43a047" height="19" opacity="0.25" width="38" x="37" y="154" /><circle cx="532" cy="302" fill="#1e88e5" opacity="0.25" r="11" /><rect fill="#43a047" height="33" opacity="0.25" width="33" x="566" y="311" /><rect fill="#1e88e5" height="18" opacity="0.25" width="36" x="352" y="8" /><rect fill="#43a047" height="24" opacity="0.25" width="24" x="150" y="413" /><circle cx="557" cy="452" fill="#1e88e5" opacity="0.25" r="16" /><rect fill="#1e88e5" height="38" opacity="0.25" width="38" x="414" y="202" /><circle cx="37" cy="550" fill="#1e88e5" opacity="0.25" r="10" /><rect fill="#1e88e5" height="27" opacity="0.25" width="27" x="129" y="532" /><circle cx="95" cy="523" fill="#1e88e5" opacity="0.25" r="13" /><rect fill="#e53935" height="10" opacity="0.25" width="10" x="348" y="163" /><rect fill="#1e88e5" height="36" opacity="0.25" width="36" x="264" y="247" /><rect fill="#43a047" height="13" opacity="0.25" width="13" x="432" y="517" /><circle cx="381" cy="265" fill="#43a047" opacity="0.25" r="15" /><rect fill="#43a047" height="17" opacity="0.25" width="34" x="126" y="48" /><circle cx="459" cy="305" fill="#43a047" opacity="0.25" r="14" /><circle cx="464" cy="347" fill="#43a047" opacity="0.25" r="8" /><rect fill="#43a047" height="37" opacity="0.25" width="37" x="579" y="546" /><circle cx="358" cy="306" fill="#43a047" opacity="0.25" r="9" /><rect fill="#1e88e5" height="32" opacity="0.25" width="32" x="586" y="143" /><rect fill="#43a047" height="20" opacity="0.25" width="20" x="253" y="107" /><rect fill="#e53935" height="24" opacity="0.25" width="24" x="197" y="369" /><circle cx="435" cy="421" fill="#e53935" opacity="0.25" r="6" /><circle cx="435" cy="133" fill="#e53935" opacity="0.25" r="12" /><rect fill="#43a047" height="15" opacity="0.25" width="31" x="79" y="378" /><rect fill="#1e88e5" height="17" opacity="0.25" width="34" x="572" y="531" /><rect fill="#1e88e5" height="15" opacity="0.25" width="30" x="598" y="510" /><rect fill="#e53935" height="18" opacity="0.25" width="36" x="501" y="426" /><circle cx="517" cy="130" fill="#43a047" opacity="0.25" r="12" /><rect fill="#43a047" height="18" opacity="0.25" width="37" x="132" y="525" /><circle cx="217" cy="466" fill="#e53935" opacity="0.25" r="12" /><rect fill="#e53935" height="21" opacity="0.25" width="21" x="160" y="572" /><rect fill="#1e88e5" height="13" opacity="0.25" width="13" x="418" y="112" /><rect fill="#e53935" height="26" opacity="0.25" width="26" x="296" y="41" /><circle cx="380" cy="312" fill="#1e88e5" opacity="0.25" r="10" /><rect fill="#e53935" height="17" opacity="0.25" width="35" x="497" y="28" /><circle cx="431" cy="49" fill="#1e88e5" opacity="0.25" r="19" /><rect fill="#43a047" height="18" opacity="0.25" width="36" x="220" y="187" /><rect fill="#1e88e5" height="13" opacity="0.25" width="27" x="2" y="125" /><circle cx="45" cy="427" fill="#43a047" opacity="0.25" r="12" /><rect fill="#1e88e5" height="19" opacity="0.25" width="38" x="579" y="463" /><rect fill="#e53935" height="17" opacity="0.25" width="34" x="486" y="135" /><rect fill="#1e88e5" height="31" opacity="0.25" width="31" x="471" y="460" /><circle cx="333" cy="91" fill="#43a047" opacity="0.25" r="17" /><rect fill="#1e88e5" height="17" opacity="0.25" width="17" x="419" y="396" /><rect fill="#43a047" height="20" opacity="0.25" width="40" x="553" y="46" /><rect fill="#e53935" height="18" opacity="0.25" width="37" x="284" y="90" /><rect fill="#43a047" height="30" opacity="0.25" width="30" x="25" y="585" /><rect fill="#43a047" height="15" opacity="0.25" width="30" x="574" y="126" /><circle cx="197" cy="554" fill="#e53935" opacity="0.25" r="14" /><rect fill="#1e88e5" height="34" opacity="0.25" width="34" x="534" y="193" /><rect fill="#43a047" height="31" opacity="0.25" width="31" x="19" y="123" /><circle cx="19" cy="281" fill="#e53935" opacity="0.25" r="17" /><circle cx="593" cy="454" fill="#43a047" opacity="0.25" r="6" /><rect fill="#e53935" height="28" opacity="0.25" width="28" x="328" y="411" /><rect fill="#e53935" height="11" opacity="0.25" width="23" x="23" y="348" /><rect fill="#1e88e5" height="10" opacity="0.25" width="20" x="24" y="540" /><rect fill="#43a047" height="6" opacity="0.25" width="13" x="93" y="117" /><circle cx="292" cy="147" fill="#1e88e5" opacity="0.25" r="7" /><circle cx="157" cy="314" fill="#1e88e5" opacity="0.25" r="20" /><rect fill="#1e88e5" height="29" opacity="0.25" width="29" x="173" y="60" /><circle cx="27" cy="59" fill="#1e88e5" opacity="0.25" r="9" /><circle cx="327" cy="145" fill="#1e88e5" opacity="0.25" r="11" /><rect fill="#e53935" height="5" opacity="0.25" width="11" x="384" y="123" /><circle cx="600" cy="242" fill="#43a047" opacity="0.25" r="12" /><rect fill="#e53935" height="18" opacity="0.25" width="18" x="394" y="117" /><rect fill="#e53935" height="11" opacity="0.25" width="23" x="475" y="566" /><rect fill="#e53935" height="15" opacity="0.25" width="30" x="29" y="417" /><circle cx="275" cy="567" fill="#43a047" opacity="0.25" r="20" /><rect fill="#43a047" height="34" opacity="0.25" width="34" x="103" y="252" /><rect fill="#1e88e5" height="28" opacity="0.25" width="28" x="128" y="311" /><rect fill="#e53935" height="8" opacity="0.25" width="16" x="85" y="512" /><rect fill="#e53935" height="17" opacity="0.25" width="35" x="553" y="172" /><rect fill="#e53935" height="24" opacity="0.25" width="24" x="433" y="568" /><circle cx="475" cy="296" fill="#e53935" opacity="0.25" r="15" /><circle cx="61" cy="493" fill="#43a047" opacity="0.25" r="9" /><rect fill="#43a047" height="18" opacity="0.25" width="36" x="389" y="359" /><circle cx="599" cy="522" fill="#e53935" opacity="0.25" r="9" /><circle cx="546" cy="576" fill="#1e88e5" opacity="0.25" r="6" /><circle cx="404" cy="125" fill="#e53935" opacity="0.25" r="18" /><rect fill="#1e88e5" height="38" opacity="0.25" width="38" x="569" y="286" /><circle cx="516" cy="325" fill="#43a047" opacity="0.25" r="19" /><rect fill="#e53935" height="9" opacity="0.25" width="18" x="267" y="463" /><rect fill="#1e88e5" height="16" opacity="0.25" width="16" x="329" y="349" /><rect fill="#43a047" height="39" opacity="0.25" width="39" x="336" y="16" /><circle cx="2" cy="487" fill="#e53935" opacity="0.25" r="5" /><rect fill="#43a047" height="27" opacity="0.25" width="27" x="177" y="423" /><rect fill="#e53935" height="27" opacity="0.25" width="27" x="500" y="402" /><rect fill="#43a047" height="10" opacity="0.25" width="10" x="79" y="551" /><rect fill="#1e88e5" height="18" opacity="0.25" width="36" x="126" y="361" /><rect fill="#43a047" height="15" opacity="0.25" width="15" x="366" y="396" /><circle cx="127" cy="473" fill="#e53935" opacity="0.25" r="10" /><rect fill="#e53935" height="16" opacity="0.25" width="33" x="9" y="226" /><rect fill="#43a047" height="6" opacity="0.25" width="12" x="366" y="196" /><rect fill="#1e88e5" height="17" opacity="0.25" width="17" x="310" y="226" /><rect fill="#43a047" height="12" opacity="0.25" width="25" x="37" y="287" /><rect fill="#43a047" height="16" opacity="0.25" width="16" x="214" y="7" /><rect fill="#43a047" height="14" opacity="0.25" width="28" x="113" y="284" /><rect fill="#43a047" height="8" opacity="0.25" width="16" x="174" y="565" /><rect fill="#e53935" height="15" opacity="0.25" width="15" x="579" y="578" /><rect fill="#1e88e5" height="14" opacity="0.25" width="14" x="131" y="66" /><rect fill="#1e88e5" height="33" opacity="0.25" width="33" x="233" y="535" /><circle cx="23" cy="545" fill="#1e88e5" opacity="0.25" r="14" /><rect fill="#1e88e5" height="10" opacity="0.25" width="10" x="573" y="464" /><rect fill="#1e88e5" height="23" opacity="0.25" width="23" x="53" y="330" /><rect fill="#1e88e5" height="12" opacity="0.25" width="24" x="124" y="530" /><rect fill="#43a047" height="19" opacity="0.25" width="38" x="529" y="44" /><circle cx="48" cy="284" fill="#1e88e5" opacity="0.25" r="19" /><rect fill="#1e88e5" height="10" opacity="0.25" width="10" x="459" y="323" /><circle cx="342" cy="83" fill="#43a047" opacity="0.25" r="19" /><circle cx="231" cy="433" fill="#e53935" opacity="0.25" r="20" /><circle cx="201" cy="168" fill="#1e88e5" opacity="0.25" r="10" /><circle cx="99" cy="28" fill="#1e88e5" opacity="0.25" r="12" /><circle cx="342" cy="256" fill="#e53935" opacity="0.25" r="8" /><rect fill="#e53935" height="18" opacity="0.25" width="36" x="244" y="348" /><rect fill="#e53935" height="20" opacity="0.25" width="40" x="532" y="242" /><rect fill="#1e88e5" height="30" opacity="0.25" width="30" x="449" y="97" /><rect fill="#e53935" height="11" opacity="0.25" width="11" x="127" y="87" /><rect fill="#e53935" height="17" opacity="0.25" width="35" x="320" y="66" /><circle cx="452" cy="56" fill="#43a047" opacity="0.25" r="9" /><rect fill="#43a047" height="13" opacity="0.25" width="13" x="442" y="67" /><circle cx="572" cy="53" fill="#1e88e5" opacity="0.25" r="9" /><rect fill="#43a047" height="8" opacity="0.25" width="17" x="98" y="420" /><rect fill="#1e88e5" height="22" opacity="0.25" width="22" x="10" y="464" /><rect fill="#43a047" height="15" opacity="0.25" width="30" x="103" y="347" /><circle cx="464" cy="529" fill="#43a047" opacity="0.25" r="10" /><circle cx="110" cy="105" fill="#43a047" opacity="0.25" r="5" /><rect fill="#43a047" height="38" opacity="0.25" width="38" x="69" y="198" /><circle cx="521" cy="262" fill="#1e88e5" opacity="0.25" r="10" /><rect fill="#e53935" height="8" opacity="0.25" width="17" x="455" y="190" /><rect fill="#e53935" filter="url(#blur)" height="60" width="60" x="125" y="195" /><text alignment-baseline="middle" fill="#ffffff" font-family="Arial" font-size="20px" text-anchor="middle" x="155.0" y="235.0">H</text><rect fill="#e53935" filter="url(#blur)" height="60" width="60" x="195" y="195" /><text alignment-baseline="middle" fill="#ffffff" font-family="Arial" font-size="20px" text-anchor="middle" x="225.0" y="235.0">A</text><rect fill="#e53935" filter="url(#blur)" height="60" width="60" x="265" y="195" /><text alignment-baseline="middle" fill="#ffffff" font-family="Arial" font-size="20px" text-anchor="middle" x="295.0" y="235.0">P</text><rect fill="#e53935" filter="url(#blur)" height="60" width="60" x="335" y="195" /><text alignment-baseline="middle" fill="#ffffff" font-family="Arial" font-size="20px" text-anchor="middle" x="365.0" y="235.0">P</text><rect fill="#e53935" filter="url(#blur)" height="60" width="60" x="405" y="195" /><text alignment-baseline="middle" fill="#ffffff" font-family="Arial" font-size="20px" text-anchor="middle" x="435.0" y="235.0">Y</text><rect fill="#1e88e5" filter="url(#blur)" height="60" width="60" x="55" y="265" /><text alignment-baseline="middle" fill="#ffffff" font-family="Arial" font-size="20px" text-anchor="middle" x="85.0" y="305.0">M</text><rect fill="#1e88e5" filter="url(#blur)" height="60" width="60" x="125" y="265" /><text alignment-baseline="middle" fill="#ffffff" font-family="Arial" font-size="20px" text-anchor="middle" x="155.0" y="305.0">O</text><rect fill="#1e88e5" filter="url(#blur)" height="60" width="60" x="195" y="265" /><text alignment-baseline="middle" fill="#ffffff" font-family="Arial" font-size="20px" text-anchor="middle" x="225.0" y="305.0">T</text><rect fill="#1e88e5" filter="url(#blur)" height="60" width="60" x="265" y="265" /><text alignment-baseline="middle" fill="#ffffff" font-family="Arial" font-size="20px" text-anchor="middle" x="295.0" y="305.0">H</text><rect fill="#1e88e5" filter="url(#blur)" height="60" width="60" x="405" y="265" /><g transform="translate(415,275)"><path d="M15,30 C20,10 40,10 45,30 M20,35 Q30,50 40,35M28,30 A5,5 0 1,1 32,30" fill="none" stroke="#ffffff" stroke-width="2" /></g><rect fill="#1e88e5" filter="url(#blur)" height="60" width="60" x="405" y="265" /><text alignment-baseline="middle" fill="#ffffff" font-family="Arial" font-size="20px" text-anchor="middle" x="435.0" y="305.0">R</text><rect fill="#1e88e5" filter="url(#blur)" height="60" width="60" x="475" y="265" /><text alignment-baseline="middle" fill="#ffffff" font-family="Arial" font-size="20px" text-anchor="middle" x="505.0" y="305.0">S</text><rect fill="#43a047" filter="url(#blur)" height="60" width="60" x="160" y="335" /><text alignment-baseline="middle" fill="#ffffff" font-family="Arial" font-size="20px" text-anchor="middle" x="190.0" y="375.0">D</text><rect fill="#43a047" filter="url(#blur)" height="60" width="60" x="230" y="335" /><text alignment-baseline="middle" fill="#ffffff" font-family="Arial" font-size="20px" text-anchor="middle" x="260.0" y="375.0">A</text><rect fill="#43a047" filter="url(#blur)" height="60" width="60" x="300" y="335" /><text alignment-baseline="middle" fill="#ffffff" font-family="Arial" font-size="20px" text-anchor="middle" x="330.0" y="375.0">Y</text><rect fill="#43a047" filter="url(#blur)" height="60" width="60" x="370" y="335" /><text alignment-baseline="middle" fill="#ffffff" font-family="Arial" font-size="20px" text-anchor="middle" x="400.0" y="375.0">!</text></svg>