<?xml version="1.0" encoding="utf-8" ?>
<svg baseProfile="full" height="400" version="1.1" width="600" xmlns="http://www.w3.org/2000/svg" xmlns:ev="http://www.w3.org/2001/xml-events" xmlns:xlink="http://www.w3.org/1999/xlink"><defs><linearGradient id="bg-gradient" x1="0" x2="1" y1="0" y2="1"><stop offset="0.00" stop-color="#e53935" stop-opacity="0.15" /><stop offset="0.50" stop-color="#1e88e5" stop-opacity="0.15" /><stop offset="1.00" stop-color="#43a047" stop-opacity="0.15" /></linearGradient><filter id="blur"><feGaussianBlur in="SourceGraphic" stdDeviation="2" /></filter></defs><rect fill="url(#bg-gradient)" height="400" width="600" x="0" y="0" /><circle cx="577" cy="155" fill="#1e88e5" opacity="0.25" r="29" /><circle cx="377" cy="302" fill="#1e88e5" opacity="0.25" r="25" /><circle cx="559" cy="389" fill="#43a047" opacity="0.25" r="17" /><circle cx="419" cy="12" fill="#e53935" opacity="0.25" r="17" /><rect fill="#1e88e5" height="20" opacity="0.25" width="20" x="9" y="171" /><rect fill="#1e88e5" height="26" opacity="0.25" width="26" x="314" y="53" /><rect fill="#e53935" height="21" opacity="0.25" width="21" x="429" y="251" /><circle cx="286" cy="47" fill="#43a047" opacity="0.25" r="11" /><circle cx="422" cy="358" fill="#43a047" opacity="0.25" r="21" /><rect fill="#43a047" height="26" opacity="0.25" width="46" x="86" y="297" /><circle cx="403" cy="38" fill="#43a047" opacity="0.25" r="28" /><rect fill="#e53935" height="24" opacity="0.25" width="24" x="445" y="339" /><circle cx="267" cy="161" fill="#1e88e5" opacity="0.25" r="22" /><rect fill="#43a047" height="34" opacity="0.25" width="34" x="334" y="162" /><rect fill="#e53935" height="28" opacity="0.25" width="48" x="76" y="103" /><circle cx="108" cy="84" fill="#e53935" opacity="0.25" r="24" /><rect fill="#1e88e5" height="21" opacity="0.25" width="74" x="416" y="61" /><circle cx="315" cy="237" fill="#1e88e5" opacity="0.25" r="18" /><circle cx="161" cy="351" fill="#e53935" opacity="0.25" r="19" /><rect fill="#43a047" height="30" opacity="0.25" width="30" x="41" y="110" /><circle cx="254" cy="182" fill="#e53935" opacity="0.25" r="22" /><rect fill="#e53935" height="25" opacity="0.25" width="25" x="306" y="133" /><circle cx="463" cy="284" fill="#1e88e5" opacity="0.25" r="27" /><circle cx="473" cy="52" fill="#e53935" opacity="0.25" r="14" /><circle cx="63" cy="399" fill="#e53935" opacity="0.25" r="17" /><circle cx="410" cy="190" fill="#e53935" opacity="0.25" r="30" /><rect fill="#e53935" height="28" opacity="0.25" width="28" x="596" y="300" /><circle cx="66" cy="101" fill="#e53935" opacity="0.25" r="30" /><rect fill="#e53935" height="11" opacity="0.25" width="47" x="94" y="169" /><rect fill="#e53935" height="22" opacity="0.25" width="67" x="172" y="293" /><rect fill="#e53935" height="15" opacity="0.25" width="67" x="391" y="349" /><rect fill="#e53935" height="24" opacity="0.25" width="57" x="191" y="140" /><circle cx="251" cy="331" fill="#e53935" opacity="0.25" r="19" /><rect fill="#1e88e5" height="12" opacity="0.25" width="43" x="563" y="245" /><rect fill="#1e88e5" height="30" opacity="0.25" width="52" x="140" y="214" /><rect fill="#e53935" height="32" opacity="0.25" width="32" x="556" y="9" /><rect fill="#1e88e5" height="35" opacity="0.25" width="35" x="491" y="278" /><rect fill="#43a047" height="18" opacity="0.25" width="64" x="514" y="164" /><circle cx="326" cy="305" fill="#e53935" opacity="0.25" r="17" /><circle cx="59" cy="241" fill="#1e88e5" opacity="0.25" r="26" /><rect fill="#43a047" height="17" opacity="0.25" width="46" x="238" y="81" /><rect fill="#e53935" height="21" opacity="0.25" width="21" x="272" y="273" /><circle cx="397" cy="181" fill="#43a047" opacity="0.25" r="15" /><circle cx="325" cy="377" fill="#e53935" opacity="0.25" r="21" /><rect fill="#e53935" height="38" opacity="0.25" width="38" x="360" y="290" /><circle cx="192" cy="252" fill="#43a047" opacity="0.25" r="27" /><rect fill="#e53935" height="11" opacity="0.25" width="45" x="502" y="19" /><circle cx="224" cy="10" fill="#43a047" opacity="0.25" r="26" /><rect fill="#e53935" height="14" opacity="0.25" width="52" x="339" y="314" /><rect fill="#43a047" height="10" opacity="0.25" width="43" x="181" y="165" /><circle cx="145" cy="396" fill="#43a047" opacity="0.25" r="13" /><rect fill="#1e88e5" height="32" opacity="0.25" width="32" x="74" y="191" /><rect fill="#e53935" height="30" opacity="0.25" width="30" x="344" y="154" /><circle cx="447" cy="327" fill="#e53935" opacity="0.25" r="25" /><rect fill="#1e88e5" height="37" opacity="0.25" width="37" x="178" y="362" /><rect fill="#43a047" height="38" opacity="0.25" width="38" x="365" y="114" /><circle cx="314" cy="375" fill="#1e88e5" opacity="0.25" r="19" /><circle cx="1" cy="359" fill="#e53935" opacity="0.25" r="28" /><rect fill="#43a047" height="20" opacity="0.25" width="78" x="33" y="93" /><rect fill="#e53935" height="35" opacity="0.25" width="35" x="579" y="53" /><circle cx="79" cy="121" fill="#1e88e5" opacity="0.25" r="21" /><rect fill="#e53935" height="20" opacity="0.25" width="80" x="90" y="362" /><rect fill="#e53935" height="12" opacity="0.25" width="55" x="271" y="107" /><rect fill="#1e88e5" height="11" opacity="0.25" width="40" x="110" y="368" /><rect fill="#1e88e5" height="25" opacity="0.25" width="66" x="429" y="85" /><rect fill="#1e88e5" height="25" opacity="0.25" width="46" x="559" y="192" /><rect fill="#43a047" height="34" opacity="0.25" width="34" x="230" y="83" /><circle cx="301" cy="10" fill="#e53935" opacity="0.25" r="20" /><rect fill="#e53935" height="22" opacity="0.25" width="50" x="75" y="175" /><circle cx="76" cy="280" fill="#43a047" opacity="0.25" r="12" /><rect fill="#43a047" height="23" opacity="0.25" width="41" x="494" y="360" /><rect fill="#e53935" height="21" opacity="0.25" width="21" x="444" y="80" /><circle cx="210" cy="97" fill="#1e88e5" opacity="0.25" r="23" /><rect fill="#43a047" height="29" opacity="0.25" width="29" x="553" y="135" /><rect fill="#e53935" height="28" opacity="0.25" width="65" x="98" y="25" /><rect fill="#1e88e5" height="31" opacity="0.25" width="31" x="157" y="27" /><circle cx="89" cy="150" fill="#1e88e5" opacity="0.25" r="30" /><rect fill="#1e88e5" height="20" opacity="0.25" width="20" x="204" y="49" /><circle cx="298" cy="41" fill="#e53935" opacity="0.25" r="25" /><circle cx="407" cy="241" fill="#1e88e5" opacity="0.25" r="25" /><rect fill="#1e88e5" height="37" opacity="0.25" width="37" x="93" y="328" /><rect fill="#e53935" height="15" opacity="0.25" width="63" x="379" y="195" /><rect fill="#e53935" height="18" opacity="0.25" width="69" x="269" y="225" /><circle cx="577" cy="31" fill="#1e88e5" opacity="0.25" r="14" /><rect fill="#43a047" height="31" opacity="0.25" width="31" x="99" y="43" /><rect fill="#1e88e5" height="21" opacity="0.25" width="21" x="232" y="283" /><rect fill="#43a047" height="28" opacity="0.25" width="70" x="428" y="274" /><circle cx="306" cy="40" fill="#1e88e5" opacity="0.25" r="22" /><rect fill="#e53935" height="36" opacity="0.25" width="36" x="514" y="292" /><rect fill="#43a047" height="34" opacity="0.25" width="34" x="150" y="61" /><circle cx="216" cy="98" fill="#e53935" opacity="0.25" r="14" /><circle cx="80" cy="349" fill="#1e88e5" opacity="0.25" r="23" /><circle cx="151" cy="304" fill="#43a047" opacity="0.25" r="18" /><rect fill="#43a047" height="27" opacity="0.25" width="64" x="68" y="44" /><rect fill="#43a047" height="24" opacity="0.25" width="73" x="333" y="141" /><circle cx="535" cy="400" fill="#43a047" opacity="0.25" r="23" /><circle cx="153" cy="75" fill="#1e88e5" opacity="0.25" r="28" /><rect fill="#43a047" height="38" opacity="0.25" width="38" x="102" y="54" /><circle cx="548" cy="176" fill="#1e88e5" opacity="0.25" r="23" /><rect fill="#1e88e5" height="25" opacity="0.25" width="78" x="497" y="292" /><rect fill="#e53935" filter="url(#blur)" height="40" width="40" x="175" y="125" /><text fill="white" font-size="18px" font-weight="bold" text-anchor="middle" x="195.0" y="151.66666666666666">H</text><rect fill="#e53935" filter="url(#blur)" height="40" width="40" x="225" y="125" /><text fill="white" font-size="18px" font-weight="bold" text-anchor="middle" x="245.0" y="151.66666666666666">A</text><rect fill="#e53935" filter="url(#blur)" height="40" width="40" x="275" y="125" /><text fill="white" font-size="18px" font-weight="bold" text-anchor="middle" x="295.0" y="151.66666666666666">P</text><rect fill="#e53935" filter="url(#blur)" height="40" width="40" x="325" y="125" /><text fill="white" font-size="18px" font-weight="bold" text-anchor="middle" x="345.0" y="151.66666666666666">P</text><rect fill="#e53935" filter="url(#blur)" height="40" width="40" x="375" y="125" /><text fill="white" font-size="18px" font-weight="bold" text-anchor="middle" x="395.0" y="151.66666666666666">Y</text><rect fill="#1e88e5" filter="url(#blur)" height="40" width="40" x="100" y="175" /><text fill="white" font-size="18px" font-weight="bold" text-anchor="middle" x="120.0" y="201.66666666666666">M</text><rect fill="#1e88e5" filter="url(#blur)" height="40" width="40" x="150" y="175" /><text fill="white" font-size="18px" font-weight="bold" text-anchor="middle" x="170.0" y="201.66666666666666">O</text><rect fill="#1e88e5" filter="url(#blur)" height="40" width="40" x="200" y="175" /><text fill="white" font-size="18px" font-weight="bold" text-anchor="middle" x="220.0" y="201.66666666666666">T</text><rect fill="#1e88e5" filter="url(#blur)" height="40" width="40" x="250" y="175" /><text fill="white" font-size="18px" font-weight="bold" text-anchor="middle" x="270.0" y="201.66666666666666">H</text><rect fill="#1e88e5" filter="url(#blur)" height="40" width="40" x="300" y="175" /><text fill="white" font-size="18px" font-weight="bold" text-anchor="middle" x="320.0" y="201.66666666666666">E</text><rect fill="#1e88e5" filter="url(#blur)" height="40" width="40" x="350" y="175" /><text fill="white" font-size="18px" font-weight="bold" text-anchor="middle" x="370.0" y="201.66666666666666">R</text><rect fill="#1e88e5" filter="url(#blur)" height="40" width="40" x="400" y="175" /><text fill="white" font-size="18px" font-weight="bold" text-anchor="middle" x="420.0" y="201.66666666666666">'</text><rect fill="#1e88e5" filter="url(#blur)" height="40" width="40" x="450" y="175" /><text fill="white" font-size="18px" font-weight="bold" text-anchor="middle" x="470.0" y="201.66666666666666">S</text><rect fill="#43a047" filter="url(#blur)" height="40" width="40" x="200" y="225" /><text fill="white" font-size="18px" font-weight="bold" text-anchor="middle" x="220.0" y="251.66666666666666">D</text><rect fill="#43a047" filter="url(#blur)" height="40" width="40" x="250" y="225" /><text fill="white" font-size="18px" font-weight="bold" text-anchor="middle" x="270.0" y="251.66666666666666">A</text><rect fill="#43a047" filter="url(#blur)" height="40" width="40" x="300" y="225" /><text fill="white" font-size="18px" font-weight="bold" text-anchor="middle" x="320.0" y="251.66666666666666">Y</text><rect fill="#43a047" filter="url(#blur)" height="40" width="40" x="350" y="225" /><text fill="white" font-size="18px" font-weight="bold" text-anchor="middle" x="370.0" y="251.66666666666666">!</text></svg>